<?xml version="1.0" encoding="UTF-8"?>
<svg version="1.1" xmlns="http://www.w3.org/2000/svg" width="2500" height="2500">
<path d="M0 0 C2.63601526 -0.00134859 5.27202764 -0.00309289 7.90804204 -0.00531223 C13.63046823 -0.00933893 19.35288533 -0.00970407 25.07531241 -0.00760629 C33.6421649 -0.00448309 42.20900913 -0.00715639 50.77586102 -0.010905 C65.38087954 -0.01712505 79.98589508 -0.01861314 94.59091473 -0.01748753 C109.38462386 -0.01636174 124.17833047 -0.01740178 138.97203922 -0.02105999 C139.90765897 -0.02128964 140.84327872 -0.0215193 141.80725059 -0.02175591 C145.6181281 -0.02269759 149.42900561 -0.02365328 153.23988312 -0.0246271 C192.96344975 -0.03476304 232.68701498 -0.03783277 272.41058276 -0.03841921 C276.6843407 -0.03848396 280.95809864 -0.0385519 285.23185658 -0.03862262 C286.29244214 -0.03863962 287.35302769 -0.03865663 288.4457522 -0.03867415 C311.96405119 -0.03908287 335.48234991 -0.04127364 359.00064876 -0.04377846 C368.68930951 -0.04480684 378.37797027 -0.04579688 388.06663102 -0.04679471 C389.13719623 -0.0469053 390.20776144 -0.04701589 391.31076802 -0.04712983 C452.64831276 -0.05345273 513.98585732 -0.05757908 575.3234024 -0.05712128 C577.61817839 -0.0571055 579.91295437 -0.05708976 582.20773035 -0.05707407 C592.56809647 -0.05700069 602.92846258 -0.05691252 613.2888287 -0.05682018 C617.90863133 -0.05677906 622.52843396 -0.05673891 627.14823659 -0.05669887 C629.46052939 -0.05667848 631.7728222 -0.05665746 634.085115 -0.05663581 C707.19087874 -0.05595567 780.29663764 -0.06327151 853.40240002 -0.07717609 C871.8202559 -0.08067724 890.23811179 -0.08414676 908.65596771 -0.08744049 C909.79009582 -0.08764336 910.92422392 -0.08784624 912.09271954 -0.08805526 C947.06048738 -0.09427248 982.02825481 -0.09803625 1016.99602318 -0.09929848 C1018.09424781 -0.09933843 1019.19247245 -0.09937838 1020.32397662 -0.09941954 C1044.43540851 -0.10027291 1068.54684037 -0.10053398 1092.65827226 -0.10024916 C1101.28630797 -0.10015268 1109.91434367 -0.10010064 1118.54237938 -0.10007043 C1120.68873542 -0.10006252 1122.83509146 -0.10005232 1124.9814475 -0.10003981 C1159.14707285 -0.09986366 1193.31269405 -0.10555433 1227.47831821 -0.11419363 C1261.90054573 -0.12285355 1296.32276751 -0.12502626 1330.74499567 -0.1184323 C1335.50842988 -0.11752009 1340.27186411 -0.11667679 1345.03529835 -0.11587429 C1345.96900072 -0.1157142 1346.9027031 -0.11555412 1347.86469949 -0.11538918 C1362.60967772 -0.11304222 1377.35464597 -0.11737973 1392.09962233 -0.12454548 C1406.62176917 -0.13146156 1421.14390137 -0.13116309 1435.66604791 -0.12335334 C1444.16377762 -0.11899469 1452.66146404 -0.1199887 1461.1591901 -0.12922013 C1466.82443597 -0.13481752 1472.48965 -0.13297488 1478.15489349 -0.12543734 C1481.35241818 -0.12138091 1484.54984385 -0.12129255 1487.74736598 -0.12818803 C1511.27739323 -0.17548334 1535.01989804 0.56417263 1558.28887463 4.31613445 C1558.9605064 4.42223034 1559.63213818 4.52832623 1560.32412243 4.63763714 C1595.58234979 10.24272829 1630.48764532 20.70571207 1662.72637463 36.12863445 C1663.65578869 36.57062176 1664.58520275 37.01260906 1665.54278088 37.46798992 C1683.45961719 46.05161712 1700.38491106 55.84375789 1716.72637463 67.12863445 C1717.30451916 67.5251823 1717.88266369 67.92173016 1718.47832775 68.33029461 C1727.62570592 74.62878527 1736.29087677 81.44627367 1744.82403088 88.55099773 C1746.54112198 89.97500219 1748.27181957 91.37992039 1750.00762463 92.7809782 C1758.13751326 99.4421619 1765.59405798 106.78532932 1773.03887463 114.19113445 C1773.55111584 114.69810863 1774.06335705 115.20508282 1774.59112072 115.72741985 C1781.44381531 122.5255644 1787.6972292 129.57670702 1793.72637463 137.12863445 C1794.6728492 138.24221365 1795.62593504 139.35025915 1796.58965588 140.44894695 C1803.41633844 148.26642395 1809.45237108 156.49676078 1815.30938244 165.06027508 C1816.61155999 166.96104148 1817.92882993 168.85029342 1819.24981213 170.73800945 C1837.67233628 197.36028293 1852.39643118 227.47264346 1862.72637463 258.12863445 C1863.1063258 259.25205242 1863.48627697 260.37547039 1863.87774181 261.53293133 C1895.24121877 355.49408158 1889.50641993 459.68525994 1846.72637463 549.12863445 C1846.10448254 550.44855389 1846.10448254 550.44855389 1845.47002697 551.79513836 C1830.67855472 583.04893881 1810.83194654 613.10162457 1787.21074963 638.43332195 C1785.26684888 640.54227088 1783.38832708 642.67744308 1781.51934338 644.8512907 C1777.31554437 649.67246251 1772.82108001 654.18052815 1768.28887463 658.69113445 C1767.48127697 659.5025993 1766.67367931 660.31406414 1765.841609 661.15011883 C1760.96626508 666.01760563 1755.9803391 670.67339444 1750.72637463 675.12863445 C1750.08530773 675.67640545 1749.44424084 676.22417645 1748.78374767 676.78854656 C1738.50528053 685.51762474 1727.90732525 693.59263229 1716.72637463 701.12863445 C1716.04639416 701.58834637 1715.36641369 702.04805828 1714.66582775 702.52170086 C1687.05836468 721.06923146 1657.2697556 736.49967316 1625.72637463 747.12863445 C1624.60295666 747.50858562 1623.47953869 747.8885368 1622.32207775 748.28000164 C1577.21752506 763.3355389 1531.44829066 768.47687287 1484.09922314 768.38031673 C1481.45038389 768.38240982 1478.80155587 768.38529624 1476.15271962 768.38912547 C1470.43637448 768.39582721 1464.72006769 768.39530991 1459.00372183 768.38975838 C1450.44615165 768.3814855 1441.88861186 768.38496132 1433.33104089 768.39052366 C1418.73754777 768.39967403 1404.14406865 768.39944803 1389.5505743 768.39396191 C1374.77922183 768.3884429 1360.00787856 768.38731191 1345.23652554 768.39143658 C1344.30059017 768.39169492 1343.36465481 768.39195327 1342.40035777 768.39221944 C1338.58790592 768.39328608 1334.77545409 768.39438352 1330.96300227 768.39551999 C1295.52203357 768.40607729 1260.08107102 768.40682553 1224.64010143 768.40122509 C1223.06748016 768.4009767 1223.06748016 768.4009767 1221.46308875 768.4007233 C1220.4129806 768.40055744 1219.36287244 768.40039158 1218.28094283 768.4002207 C1186.25138997 768.39516853 1154.22183966 768.39387424 1122.19228649 768.39626598 C1120.0450285 768.39642094 1117.8977705 768.39657526 1115.7505125 768.39672892 C1107.1209442 768.39734989 1098.4913759 768.39798723 1089.8618076 768.39864845 C1065.74060841 768.40048221 1041.61940921 768.4016236 1017.49820995 768.40222073 C1015.85076115 768.40226166 1015.85076115 768.40226166 1014.17003054 768.40230343 C979.18865384 768.40312163 944.20727803 768.40087003 909.2259016 768.39652157 C908.09179642 768.39638107 906.95769124 768.39624057 905.78921924 768.39609582 C887.37365147 768.39380609 868.95808372 768.39136709 850.54251597 768.38891547 C777.51037525 768.37920327 704.47824187 768.37965406 631.44610119 768.38937664 C613.03968335 768.39181915 594.63326551 768.3942413 576.22684765 768.39652157 C575.0934013 768.39666246 573.95995495 768.39680336 572.79216174 768.39694853 C537.84628748 768.40126276 502.90041382 768.40308909 467.9545393 768.40222073 C466.85705298 768.40219356 465.75956665 768.40216639 464.62882317 768.4021384 C440.53414168 768.40151336 416.43946026 768.40024593 392.34477883 768.39839972 C383.72305967 768.39774148 375.1013405 768.39711531 366.47962134 768.3964983 C364.33488512 768.39634352 362.19014889 768.39618606 360.04541267 768.39602591 C328.02682754 768.39364154 296.00824527 768.39566613 263.9896605 768.4007233 C262.94124631 768.40088889 261.89283213 768.40105448 260.81264782 768.40122509 C259.76617919 768.40139045 258.71971056 768.40155582 257.64153076 768.4017262 C222.29997807 768.40724985 186.95843276 768.40519878 151.61688113 768.3946636 C147.816662 768.39355896 144.01644286 768.39248555 140.21622372 768.39143658 C139.28362493 768.39117616 138.35102614 768.39091575 137.39016679 768.39064744 C122.66289606 768.38671292 107.93563456 768.38943818 93.20836467 768.39497459 C78.70394915 768.40028385 64.19954908 768.39837414 49.69513551 768.38894641 C41.20805307 768.38363933 32.72101316 768.38366723 24.23393282 768.39190961 C18.57583957 768.3968476 12.91777897 768.39435538 7.2596896 768.3861759 C4.06626364 768.38175647 0.87293599 768.38129677 -2.32048868 768.38780893 C-25.62913948 768.43192227 -49.24272225 767.81963586 -72.27362537 763.94113445 C-73.24314137 763.78199062 -73.24314137 763.78199062 -74.23224354 763.61963177 C-110.69507983 757.61318228 -145.91290937 747.0847961 -179.27362537 731.12863445 C-180.15357166 730.71403973 -181.03351795 730.299445 -181.94012928 729.8722868 C-213.19392974 715.08081455 -243.24661549 695.23420637 -268.57831287 671.61300945 C-270.6872618 669.6691087 -272.822434 667.7905869 -274.99628162 665.9216032 C-279.81745343 661.71780419 -284.32551907 657.22333983 -288.83612537 652.69113445 C-289.64759022 651.8835368 -290.45905506 651.07593914 -291.29510975 650.24386883 C-296.16192296 645.36919958 -300.82740829 640.38964226 -305.27362537 635.12863445 C-305.78514149 634.52382244 -306.2966576 633.91901043 -306.8236742 633.29587078 C-338.14876084 595.88384745 -362.65426332 553.37880204 -378.27362537 507.12863445 C-378.63150135 506.08207684 -378.98937733 505.03551922 -379.35809803 503.95724773 C-390.88151633 469.85408671 -397.61904061 433.16841612 -398.27362537 397.12863445 C-398.29408924 396.20727703 -398.31455311 395.28591961 -398.33563709 394.33664227 C-399.24460974 347.50577061 -392.03976848 302.53061317 -377.27362537 258.12863445 C-376.95087635 257.15668133 -376.62812733 256.1847282 -376.29559803 255.18332195 C-364.31646779 219.81808676 -345.90339102 185.76321592 -323.27362537 156.12863445 C-322.39263004 154.95344278 -321.51238707 153.7776866 -320.63300037 152.6012907 C-304.25020283 130.83716608 -285.39759181 108.90237062 -263.85175037 92.1481657 C-261.41771324 90.24150328 -259.08500765 88.24512679 -256.75604725 86.21237469 C-249.33317601 79.7647136 -241.4527799 74.09300096 -233.34198475 68.54562664 C-231.44121835 67.24344909 -229.5519664 65.92617915 -227.66425037 64.60519695 C-201.03004292 46.17441452 -170.93078333 31.48857331 -140.27362537 21.12863445 C-139.17679432 20.75400066 -138.07996326 20.37936687 -136.94989491 19.99338055 C-92.23449293 4.90280165 -47.01973178 -0.04177065 0 0 Z M-74.96112537 100.69113445 C-76.67586048 101.06685589 -76.67586048 101.06685589 -78.4252367 101.45016766 C-121.59867606 111.37135899 -161.9620077 131.1446138 -196.27362537 159.12863445 C-196.79343983 159.54693523 -197.31325428 159.96523602 -197.84882069 160.39621258 C-212.9912386 172.64523298 -227.5169186 186.57594302 -239.27362537 202.12863445 C-240.26918628 203.38659922 -241.26675375 204.64297737 -242.26581287 205.8981657 C-250.38110448 216.18051967 -257.58163782 226.87176349 -264.27362537 238.12863445 C-264.74010487 238.91045086 -265.20658436 239.69226727 -265.68719959 240.49777508 C-291.14027927 283.65308413 -303.49124251 333.36097225 -303.52362537 383.25363445 C-303.52463749 384.65558056 -303.52463749 384.65558056 -303.52567005 386.08584881 C-303.50862952 400.97354118 -302.89188485 415.438283 -300.27362537 430.12863445 C-300.10201893 431.10816082 -299.93041248 432.08768719 -299.75360584 433.09689617 C-289.24587767 491.32604932 -262.2317165 543.60775448 -221.27362537 586.12863445 C-220.47674305 586.95838787 -220.47674305 586.95838787 -219.66376209 587.80490398 C-212.59199705 595.12870698 -205.30503357 601.85033036 -197.27362537 608.12863445 C-196.1826237 609.00871136 -195.09283388 609.89029212 -194.00409412 610.7731657 C-185.75604086 617.42100767 -177.22989144 623.47299789 -168.27362537 629.12863445 C-167.65245838 629.52373211 -167.03129139 629.91882977 -166.39130116 630.32590008 C-124.11360541 656.94962809 -73.1481119 673.36505894 -22.97306579 673.25628495 C-21.33811229 673.25876112 -21.33811229 673.25876112 -19.67012941 673.26128731 C-16.02118354 673.26559799 -12.37227832 673.26281548 -8.72333145 673.26006222 C-6.06814279 673.26171253 -3.41295708 673.26375831 -0.75776938 673.26628232 C5.03156916 673.27098555 10.82089914 673.2719833 16.61023927 673.27055398 C25.27732834 673.26842993 33.94440859 673.2720503 42.6114963 673.27676875 C57.38403454 673.28463733 72.15657036 673.28773055 86.92911053 673.28821468 C101.90033301 673.28871714 116.87155279 673.29136479 131.84277439 673.29662228 C133.26110117 673.29711748 133.26110117 673.29711748 134.70808102 673.29762268 C138.55918521 673.29897269 142.41028938 673.30033535 146.26139356 673.30171479 C191.85298477 673.31801624 237.44457545 673.32440336 283.03616908 673.32916266 C305.74040285 673.33154611 328.44463633 673.33524965 351.14886987 673.33919975 C423.98359485 673.35186446 496.81831982 673.36264808 569.65304588 673.36604021 C573.13410183 673.36620245 576.61515778 673.36636801 580.09621373 673.3665346 C587.0774825 673.36686839 594.05875127 673.36719887 601.04002005 673.36752915 C609.21332371 673.36791605 617.38662737 673.36830566 625.55993103 673.36870022 C627.89919366 673.36881264 630.23845629 673.36892406 632.57771892 673.36903447 C707.69641868 673.37258341 782.81510888 673.38765968 857.933805 673.41097222 C911.91188181 673.42771713 965.88995682 673.44319029 1019.86803627 673.44770718 C1021.53368227 673.4478474 1021.53368227 673.4478474 1023.23297769 673.44799047 C1047.61160621 673.45000967 1071.99023471 673.45116558 1096.36886331 673.45151905 C1105.09247448 673.45165522 1113.81608565 673.45186421 1122.53969683 673.4521123 C1124.70988431 673.45217387 1126.88007179 673.45223219 1129.05025927 673.45228725 C1163.61066359 673.45320653 1198.17105791 673.46316821 1232.73145894 673.47774474 C1267.55088058 673.49237172 1302.37028997 673.49739577 1337.18971415 673.4893252 C1342.00612906 673.48820989 1346.82254398 673.48719921 1351.63895893 673.48625088 C1352.58306832 673.48606091 1353.52717771 673.48587094 1354.49989647 673.48567522 C1369.42152075 673.48294642 1384.3431223 673.49026794 1399.26474164 673.50182425 C1413.95380313 673.51298982 1428.64283263 673.51337156 1443.33189464 673.50245406 C1451.93228413 673.4963806 1460.5325768 673.49839071 1469.13295706 673.51270603 C1474.86116703 673.52140927 1480.58930652 673.5190188 1486.31751225 673.50800732 C1489.5541773 673.50208436 1492.79062022 673.5021992 1496.02727888 673.51269218 C1573.4801734 673.74711088 1645.96596573 644.83965619 1701.72637463 591.12863445 C1702.27954357 590.59737957 1702.83271252 590.06612469 1703.40264416 589.51877117 C1710.73004679 582.44353037 1717.41789358 575.14008407 1723.72637463 567.12863445 C1724.66794496 565.98599437 1725.61210263 564.84548296 1726.55840588 563.70675945 C1761.02816595 521.96197464 1780.98598605 469.49642699 1787.72637463 416.12863445 C1787.88106213 414.91675457 1787.88106213 414.91675457 1788.03887463 413.68039227 C1789.07642319 404.16088417 1788.97016758 394.56785485 1788.97637463 385.00363445 C1788.97704937 384.06867138 1788.97772411 383.13370831 1788.9784193 382.17041302 C1788.9613986 367.29383842 1788.28515156 352.81138006 1785.72637463 338.12863445 C1785.56008556 337.12735516 1785.3937965 336.12607586 1785.22246838 335.09445477 C1780.11892859 304.95521706 1770.10209326 276.08804813 1755.72637463 249.12863445 C1755.34900158 248.41256023 1754.97162853 247.69648602 1754.58281994 246.95871258 C1748.68261777 235.81549702 1742.15685172 225.31496515 1734.72637463 215.12863445 C1734.31419689 214.56338055 1733.90201916 213.99812664 1733.47735119 213.41574383 C1718.75373937 193.41251294 1701.54228355 174.16798131 1681.72637463 159.12863445 C1680.46728748 158.131544 1679.20958771 157.13270026 1677.95293713 156.1325407 C1643.53046817 128.97077625 1603.25243074 110.0470291 1560.41387463 100.69113445 C1559.40445812 100.46852947 1558.39504162 100.24592449 1557.35503674 100.01657391 C1536.49435733 95.77319767 1515.62070909 94.68742425 1494.38814831 94.75111103 C1491.70950901 94.74797408 1489.03089487 94.74364699 1486.35226226 94.73789793 C1480.55502951 94.7278147 1474.75788174 94.7286436 1468.96064734 94.73694856 C1460.28199222 94.74932476 1451.60340483 94.74415811 1442.924748 94.73580064 C1428.12708997 94.7220551 1413.32946296 94.72242398 1398.53180218 94.73064327 C1383.54871779 94.73891471 1368.56565379 94.74062391 1353.58256817 94.73443127 C1352.15982849 94.73384999 1352.15982849 94.73384999 1350.70834659 94.73325697 C1346.84489579 94.73165705 1342.98144502 94.73001091 1339.11799428 94.72830614 C1303.18266127 94.71246075 1267.24734193 94.71135203 1231.31200695 94.7197485 C1229.71666011 94.72012108 1229.71666011 94.72012108 1228.08908404 94.72050118 C1226.49116775 94.72087437 1226.49116775 94.72087437 1224.86097032 94.72125509 C1192.38342522 94.72882996 1159.90588576 94.73077634 1127.42833996 94.72718716 C1125.25199483 94.72695472 1123.07564971 94.72672325 1120.89930458 94.72649275 C1112.15308456 94.72556131 1103.40686453 94.72460531 1094.66064451 94.72361346 C1070.21259407 94.72086267 1045.76454361 94.71915069 1021.31649303 94.71825504 C1020.20326333 94.71821411 1019.09003362 94.71817317 1017.94306968 94.71813099 C982.48020196 94.71690348 947.01733621 94.72028214 911.55446911 94.72680378 C910.40456436 94.72701453 909.2546596 94.72722527 908.06990925 94.72744241 C889.39717524 94.73087709 870.72444128 94.73453556 852.05170732 94.73821293 C777.9972941 94.7527815 703.94289715 94.7521053 629.888484 94.73752117 C611.22508273 94.73385749 592.56168146 94.73022429 573.89828014 94.72680378 C572.17443 94.72648676 572.17443 94.72648676 570.4157546 94.72616334 C534.98925488 94.71969307 499.56275651 94.71695229 464.13625622 94.71825504 C463.02384795 94.7182958 461.91143968 94.71833655 460.76532207 94.71837854 C436.34425854 94.71931605 411.92319516 94.7212171 387.50213177 94.72398655 C378.76381443 94.72497394 370.02549708 94.72591319 361.28717974 94.72683868 C359.11339049 94.72707085 356.93960125 94.72730704 354.76581201 94.72754727 C322.29842736 94.73112547 289.83104907 94.72808373 257.36366522 94.72050118 C256.30010065 94.7202528 255.23653609 94.72000441 254.1407423 94.7197485 C252.54834919 94.71937643 252.54834919 94.71937643 250.92378653 94.71899684 C215.09036625 94.71071574 179.25696235 94.71377906 143.42354441 94.72959073 C139.57242332 94.73124773 135.72130221 94.73285785 131.87018108 94.73443127 C130.92507516 94.73482189 129.97996924 94.73521251 129.00622375 94.73561497 C114.06619658 94.74152258 99.12618983 94.73742262 84.1861645 94.72912425 C69.48116554 94.721171 54.77620089 94.72400573 40.07120626 94.73816651 C31.46064495 94.74614306 22.85017795 94.74605697 14.23962124 94.73372172 C8.50607631 94.72633861 2.77260412 94.7300166 -2.9609321 94.74232228 C-6.20140882 94.7489792 -9.44166561 94.74959249 -12.68213978 94.73987273 C-33.66344123 94.68144321 -54.42755049 96.16106707 -74.96112537 100.69113445 Z " fill="#000001" transform="translate(507.27362537384033,865.8713655471802)"/>
<path d="M0 0 C2.70169293 -0.00313834 5.40336102 -0.00746674 8.10504735 -0.0132131 C13.94352586 -0.0232805 19.78191995 -0.02247896 25.62040007 -0.01416247 C34.36079968 -0.00176918 43.10113218 -0.00696013 51.84153351 -0.01531039 C66.74567196 -0.0290456 81.64977958 -0.02869216 96.55392075 -0.02046776 C111.64217629 -0.01219267 126.73041159 -0.01049004 141.81866837 -0.01667976 C142.77426541 -0.01706728 143.72986246 -0.0174548 144.71441699 -0.01785406 C148.60688404 -0.019454 152.49935106 -0.02110015 156.39181806 -0.02280489 C192.58648752 -0.0386454 228.7811434 -0.03976117 264.97581482 -0.03136253 C266.04678107 -0.03111415 267.11774732 -0.03086576 268.22116709 -0.03060985 C269.83020808 -0.03023666 269.83020808 -0.03023666 271.47175494 -0.02985594 C304.18305046 -0.02227933 336.89434038 -0.0203355 369.6056366 -0.02392387 C371.79813785 -0.02415631 373.99063911 -0.02438778 376.18314036 -0.02461828 C384.99441609 -0.02554973 393.80569182 -0.02650573 402.61696754 -0.02749758 C427.24645568 -0.03024828 451.87594385 -0.03196032 476.50543213 -0.03285599 C477.62689845 -0.03289692 478.74836478 -0.03293786 479.90381493 -0.03298004 C515.62597147 -0.03420744 551.34812606 -0.03082943 587.07028198 -0.02430725 C588.80760254 -0.02399113 588.80760254 -0.02399113 590.58002049 -0.02366862 C609.38736041 -0.02023399 628.19470029 -0.0165755 647.00204017 -0.0128981 C721.58903744 0.00167033 796.17601855 0.00099414 870.76301575 -0.01358986 C889.56098428 -0.01725358 908.35895281 -0.0208868 927.15692139 -0.02430725 C928.31446065 -0.0245186 929.4719999 -0.02472994 930.66461611 -0.02494769 C966.35033474 -0.03141852 1002.03605204 -0.03415864 1037.72177124 -0.03285599 C1039.4027275 -0.03279486 1039.4027275 -0.03279486 1041.11764248 -0.03273249 C1065.72000067 -0.03179496 1090.32235873 -0.02989386 1114.92471678 -0.02712448 C1123.72800368 -0.0261371 1132.53129059 -0.02519785 1141.33457749 -0.02427235 C1143.52450387 -0.02404018 1145.71443024 -0.02380399 1147.90435661 -0.02356376 C1180.60491887 -0.01998641 1213.30547481 -0.02302564 1246.00603628 -0.03060985 C1247.61248565 -0.03098243 1247.61248565 -0.03098243 1249.25138855 -0.03136253 C1250.32036959 -0.03161058 1251.38935064 -0.03185863 1252.49072504 -0.03211419 C1288.58332451 -0.04039756 1324.67590771 -0.03732737 1360.76850486 -0.0215203 C1364.64851489 -0.01986332 1368.52852494 -0.0182532 1372.408535 -0.01667976 C1373.36072253 -0.01628914 1374.31291005 -0.01589852 1375.29395175 -0.01549607 C1390.33798653 -0.00959146 1405.38200102 -0.01368518 1420.42603397 -0.02198678 C1435.23806267 -0.02994553 1450.05005731 -0.02709538 1464.86208171 -0.01294452 C1473.53214171 -0.00497619 1482.20210806 -0.00503944 1490.87216346 -0.01738931 C1496.64890017 -0.02478475 1502.4255648 -0.02107557 1508.20229291 -0.00878875 C1511.46487107 -0.00214617 1514.72723179 -0.00149351 1517.98980726 -0.0112383 C1615.506489 -0.28160742 1707.23814537 38.96176871 1788.2915802 114.43831444 C1793.45338474 119.57635581 1798.4249229 124.80068081 1803.11360168 130.37752342 C1803.88446106 131.25924217 1804.65532043 132.14096092 1805.44953918 133.04939842 C1818.31061857 147.83746642 1829.86250731 163.68072541 1840.11360168 180.37752342 C1840.52384583 181.04251854 1840.93408997 181.70751366 1841.35676575 182.39266014 C1872.95984343 233.950967 1892.23586402 292.05040824 1897.11360168 352.37752342 C1897.17144836 353.08441307 1897.22929504 353.79130272 1897.28889465 354.51961327 C1900.64276141 397.72179606 1896.45242312 441.57938009 1885.11360168 483.37752342 C1884.84289856 484.3860537 1884.57219543 485.39458397 1884.29328918 486.43367577 C1869.22661233 541.95684416 1841.04513477 593.21257957 1803.11360168 636.37752342 C1802.32469543 637.27857811 1801.53578918 638.1796328 1800.72297668 639.10799217 C1794.56841522 645.96897342 1788.10175463 652.52096763 1781.61360168 659.06502342 C1780.31446838 660.38373436 1780.31446838 660.38373436 1778.98908997 661.72908592 C1773.01097002 667.71508218 1766.7200923 673.10097991 1760.11360168 678.37752342 C1759.08623533 679.24113023 1758.06283179 680.10952669 1757.04719543 680.98689842 C1738.6867159 696.73266178 1718.17711024 709.81614294 1696.96516418 721.36141014 C1695.22272178 722.31763974 1693.49567983 723.30178018 1691.76985168 724.28767967 C1625.12941807 761.50544478 1551.03727281 767.87302716 1476.28156023 767.76598894 C1468.41376342 767.75537281 1460.54600452 767.76274853 1452.67820783 767.77035724 C1437.98089821 767.78406876 1423.28361989 767.78375076 1408.58630753 767.7755146 C1393.71342461 767.7672311 1378.84056224 767.76554356 1363.96767807 767.77172661 C1363.02471057 767.77211413 1362.08174307 767.77250164 1361.11020079 767.7729009 C1357.26899654 767.7745009 1353.4277923 767.77614705 1349.58658809 767.77785173 C1313.89249421 767.79368105 1278.1984141 767.79481299 1242.50431824 767.78640938 C1241.44878379 767.78616099 1240.39324934 767.78591261 1239.305729 767.78565669 C1238.24848524 767.7854079 1237.19124148 767.78515911 1236.10196003 767.78490279 C1203.84449656 767.77732216 1171.58703877 767.7753842 1139.32957458 767.77897072 C1137.16637648 767.77920316 1135.00317838 767.77943463 1132.83998028 767.77966513 C1124.14617883 767.78059659 1115.45237738 767.7815526 1106.75857593 767.78254442 C1082.45838458 767.78529494 1058.1581932 767.78700711 1033.85800171 767.78790283 C1032.1983784 767.78796424 1032.1983784 767.78796424 1030.50522734 767.78802688 C995.26949558 767.78925405 960.0337658 767.78587753 924.79803467 767.7793541 C923.65581566 767.77914335 922.51359666 767.7789326 921.33676496 767.77871547 C902.78987356 767.77528095 884.24298221 767.77162241 865.69609086 767.76794495 C792.14482596 767.75337683 718.59357745 767.75405302 645.04231262 767.7686367 C626.504598 767.77230051 607.96688337 767.77593376 589.4291687 767.7793541 C587.71683204 767.77967111 587.71683204 767.77967111 585.96990272 767.77999453 C550.76966877 767.78646665 515.56943619 767.78920524 480.36920166 767.78790283 C479.26360675 767.78786208 478.15801184 767.78782133 477.01891406 767.78777934 C452.74536027 767.78684175 428.47180662 767.78494054 404.19825298 767.78217132 C395.51239582 767.78118397 386.82653865 767.78024472 378.14068148 767.77931919 C375.98002391 767.77908702 373.81936634 767.77885083 371.65870877 767.7786106 C339.41296157 767.77503521 307.16722078 767.77806868 274.92147437 767.78565669 C273.86593992 767.78590508 272.81040547 767.78615346 271.72288513 767.78640938 C270.14252634 767.78678145 270.14252634 767.78678145 268.5302411 767.78716104 C232.9354956 767.79544962 197.34076657 767.79236367 161.74602342 767.77656715 C157.91719073 767.77491022 154.08835802 767.77330009 150.2595253 767.77172661 C149.31991535 767.77133599 148.38030541 767.77094537 147.41222243 767.77054291 C132.58488053 767.76464521 117.75755925 767.7687246 102.93021922 767.77703363 C88.32098605 767.78500501 73.71178738 767.78211949 59.10255855 767.76799136 C51.30052447 767.76073237 43.49856142 767.75803971 35.69652998 767.76920931 C-38.36773159 767.86908305 -108.27721081 760.10795213 -174.9650116 725.37508202 C-176.96231271 724.33810967 -178.96881115 723.32051029 -180.97624207 722.30330467 C-197.12695608 714.03368864 -212.34953239 704.22234835 -226.88639832 693.37752342 C-227.42957703 692.9732412 -227.97275574 692.56895897 -228.53239441 692.15242577 C-245.31013055 679.60269903 -260.7028675 665.62151788 -275.57389832 650.87752342 C-276.45303894 650.01143456 -277.33217957 649.14534569 -278.23796082 648.2530117 C-284.22395707 642.27489176 -289.60985481 635.98401403 -294.88639832 629.37752342 C-295.75000513 628.35015707 -296.61840159 627.32675353 -297.49577332 626.31111717 C-314.190668 606.84389508 -327.90087157 584.99776813 -339.88639832 562.37752342 C-340.32306824 561.56009666 -340.75973816 560.74266991 -341.2096405 559.90047264 C-364.92681071 515.17251918 -379.00551651 464.8173675 -382.88639832 414.37752342 C-382.97099304 413.33024071 -382.97099304 413.33024071 -383.05729675 412.26180077 C-390.62596736 314.92153111 -359.48394586 216.89933516 -297.88639832 141.37752342 C-297.45005066 140.84207909 -297.013703 140.30663475 -296.56413269 139.75496483 C-283.31936982 123.6012596 -268.87611832 107.85168169 -252.88639832 94.37752342 C-251.95698425 93.5705703 -251.02757019 92.76361717 -250.06999207 91.93221092 C-229.73068932 74.34249832 -207.394058 59.38971325 -183.88639832 46.37752342 C-183.15340515 45.96582909 -182.42041199 45.55413475 -181.66520691 45.12996483 C-126.37662299 14.20999265 -63.04674405 -0.1883106 0 0 Z M-214.88639832 189.37752342 C-218.00861553 192.95313191 -220.95722326 196.64307687 -223.88639832 200.37752342 C-224.76797612 201.46966705 -225.65084513 202.56076938 -226.53483582 203.65096092 C-233.18053651 211.89833172 -239.23174744 220.42281829 -244.88639832 229.37752342 C-245.28149597 229.99869041 -245.67659363 230.61985741 -246.08366394 231.25984764 C-269.07171817 267.76420053 -282.497867 308.70938728 -287.88639832 351.37752342 C-288.04108582 352.59049095 -288.04108582 352.59049095 -288.19889832 353.82796288 C-290.91484551 378.76375301 -290.18531619 405.69898663 -285.88639832 430.37752342 C-285.69835632 431.47032616 -285.51031433 432.56312889 -285.3165741 433.68904686 C-277.68291822 476.35735727 -260.60961892 517.43130239 -234.88639832 552.37752342 C-234.47325378 552.94084373 -234.06010925 553.50416405 -233.63444519 554.08455467 C-230.80229128 557.91761242 -227.87650536 561.66668882 -224.88639832 565.37752342 C-224.46906433 565.89927147 -224.05173035 566.42101952 -223.62174988 566.95857811 C-217.00025817 575.16401484 -209.7518748 582.71288977 -202.32389832 590.19002342 C-201.03068665 591.4971328 -201.03068665 591.4971328 -199.71134949 592.83064842 C-193.74619015 598.76700694 -187.48549966 604.15940188 -180.88639832 609.37752342 C-180.27788025 609.86567528 -179.66936218 610.35382713 -179.04240417 610.85677147 C-142.40513118 640.12610669 -99.36403597 659.1996231 -53.44889832 668.19002342 C-52.45672302 668.38491356 -51.46454773 668.5798037 -50.44230652 668.78059959 C-32.38791018 672.12608145 -14.69515268 672.66615782 3.62452126 672.63199902 C6.29870978 672.63439181 8.97288693 672.63757716 11.64707226 672.64171562 C17.45630473 672.64911962 23.26550048 672.64918129 29.07473512 672.64432613 C37.77146135 672.63709374 46.46815618 672.6414655 55.16488159 672.64800748 C69.99057265 672.6588202 84.81625099 672.66016991 99.64194489 672.65630913 C114.66021679 672.65242947 129.67847922 672.65289327 144.69675064 672.65861893 C145.64636328 672.65897775 146.59597592 672.65933658 147.5743647 672.65970628 C151.44218858 672.66118124 155.31001245 672.66268564 159.1778363 672.66422774 C198.41775481 672.67985417 237.65766681 672.68254263 276.89758788 672.68007168 C282.31763163 672.67973323 287.73767538 672.67941113 293.15771914 672.679106 C294.23430686 672.67904495 295.31089459 672.67898391 296.42010619 672.67892102 C320.28909688 672.6776486 344.15808668 672.68025146 368.0270771 672.68363206 C373.47881783 672.68440281 378.93055857 672.68514754 384.3822993 672.68589708 C386.57034247 672.68619877 388.75838565 672.68650065 390.94642882 672.68680272 C392.57330206 672.68702724 392.57330206 672.68702724 394.23304143 672.6872563 C396.42687047 672.68755983 398.62069952 672.68786451 400.81452856 672.68817034 C463.05791997 672.6968426 525.30131059 672.70148784 587.54470253 672.69722271 C588.69708095 672.69714465 589.84945936 672.6970666 591.03675834 672.69698617 C603.88672667 672.69611339 616.73669499 672.69518413 629.58666332 672.69423554 C630.74680517 672.69415003 631.90694702 672.69406452 633.10224468 672.69397642 C640.13979476 672.69345763 640.13979476 672.69345763 647.17734485 672.69293419 C721.38087416 672.68739864 795.58439103 672.69494024 869.78791809 672.71370506 C888.48489187 672.71842736 907.18186565 672.72310791 925.87883949 672.72754192 C927.6057613 672.72795191 927.6057613 672.72795191 929.36757042 672.72837017 C964.85650416 672.73674279 1000.34543685 672.74142126 1035.83437157 672.74224949 C1036.94873507 672.74227586 1038.06309858 672.74230222 1039.21123068 672.74232939 C1063.67528016 672.7428702 1088.13932955 672.74249766 1112.60337901 672.74128967 C1121.35721733 672.74086406 1130.11105566 672.74049893 1138.86489399 672.74016023 C1141.04257996 672.74007493 1143.22026593 672.73998599 1145.39795191 672.73989341 C1180.08010194 672.73844537 1214.7622435 672.74556619 1249.4443915 672.75689737 C1285.35149284 672.7685528 1321.25857908 672.76910518 1357.16568048 672.75705395 C1361.02446909 672.75580215 1364.88325772 672.75459866 1368.74204636 672.75343323 C1370.16253708 672.75299779 1370.16253708 672.75299779 1371.61172458 672.75255355 C1386.58465649 672.74823426 1401.55756689 672.75394833 1416.53049542 672.76387342 C1431.26633254 672.77342891 1446.00213658 672.77221106 1460.7379718 672.7596672 C1469.36790224 672.75263832 1477.99773741 672.75369929 1486.62766099 672.76701558 C1492.37282278 672.77505105 1498.11791307 672.77203436 1503.86306839 672.76036594 C1507.11099097 672.75406856 1510.35869263 672.75384145 1513.60661086 672.76393315 C1533.68281626 672.82202158 1553.45596786 671.43961661 1573.11360168 667.12752342 C1574.08668274 666.9177285 1575.05976379 666.70793358 1576.06233215 666.49178123 C1595.12610955 662.25266757 1613.26922831 656.29680266 1631.11360168 648.37752342 C1631.94762512 648.00869041 1632.78164856 647.63985741 1633.64094543 647.25984764 C1674.21849266 629.1265559 1713.13908601 599.93705674 1740.11360168 564.37752342 C1741.05221065 563.16773815 1741.9910275 561.95811415 1742.93000793 560.74861717 C1775.77410558 518.07886358 1795.30600203 468.68898564 1802.11360168 415.37752342 C1802.21962708 414.54768944 1802.32565247 413.71785545 1802.43489075 412.86287498 C1803.46783859 403.36641899 1803.35740917 393.79340962 1803.36360168 384.25252342 C1803.36427643 383.31789268 1803.36495117 382.38326195 1803.36564636 381.42030907 C1803.34860583 366.53261669 1802.73186116 352.06787488 1800.11360168 337.37752342 C1799.94199524 336.39799706 1799.77038879 335.41847069 1799.59358215 334.4092617 C1791.48221932 289.45969876 1773.77342101 245.25741262 1745.11360168 209.37752342 C1744.48453918 208.56928123 1743.85547668 207.76103905 1743.20735168 206.92830467 C1741.20779493 204.38378675 1739.17022353 201.87615457 1737.11360168 199.37752342 C1736.69804016 198.87027733 1736.28247864 198.36303123 1735.85432434 197.84041405 C1724.51882158 184.07499393 1712.17618206 171.36525824 1698.11360168 160.37752342 C1696.38369706 158.92006555 1694.65455247 157.46170517 1692.92610168 156.00252342 C1640.16023696 112.91915734 1573.74188492 93.99667261 1506.48711205 94.12304783 C1503.82484119 94.12065423 1501.16258172 94.11746821 1498.50031406 94.11333123 C1492.72343046 94.105936 1486.9465838 94.10586051 1481.16969804 94.11072072 C1472.52140089 94.1179606 1463.87313527 94.11357709 1455.22483893 94.10703937 C1440.48081175 94.09623278 1425.73679736 94.09487514 1410.99276733 94.09873772 C1396.05918678 94.10261866 1381.12561574 94.10215155 1366.19203568 94.09642792 C1365.24744614 94.09606909 1364.3028566 94.09571027 1363.32964314 94.09534057 C1359.48221884 94.09386559 1355.63479454 94.09236119 1351.78737026 94.0908191 C1312.76358213 94.07519654 1273.73980054 94.07250379 1234.71600984 94.07497516 C1229.32667063 94.07531362 1223.93733143 94.07563572 1218.54799223 94.07594085 C1216.94223806 94.07603241 1216.94223806 94.07603241 1215.30404441 94.07612583 C1191.56545788 94.07739848 1167.82687226 94.07479496 1144.088286 94.07141478 C1138.66563572 94.07064404 1133.24298544 94.0698993 1127.82033516 94.06914977 C1125.64395213 94.06884807 1123.4675691 94.06854619 1121.29118607 94.06824412 C1120.21238033 94.06809444 1119.13357459 94.06794476 1118.02207777 94.06779055 C1115.83992384 94.06748702 1113.65776991 94.06718233 1111.47561599 94.0668765 C1049.56743518 94.05820483 987.65925517 94.05355859 925.75107384 94.05782413 C924.60501525 94.05790219 923.45895666 94.05798025 922.27816903 94.05806067 C909.49880009 94.05893345 896.71943115 94.05986271 883.94006221 94.0608113 C882.2094249 94.06093957 882.2094249 94.06093957 880.44382523 94.06107042 C873.44500361 94.06158921 873.44500361 94.06158921 866.44618198 94.06211265 C792.65156045 94.06764816 718.85695143 94.06010649 645.06233215 94.04134178 C626.46815175 94.03661945 607.87397135 94.03193888 589.27979088 94.02750492 C588.1348245 94.0272316 586.98985813 94.02695828 585.81019581 94.02667667 C550.5135122 94.0183035 515.21682963 94.01362554 479.92014503 94.01279736 C478.81175031 94.01277099 477.70335558 94.01274462 476.56137313 94.01271746 C452.22787645 94.01217664 427.89437984 94.01254921 403.56088319 94.01375717 C394.85368413 94.01418278 386.14648508 94.01454791 377.43928602 94.01488661 C375.27322126 94.01497192 373.10715649 94.01506085 370.94109173 94.01515343 C336.45069415 94.0166012 301.96030509 94.00948247 267.46990956 93.99814947 C231.75955386 93.9864916 196.04921334 93.98594434 160.33885758 93.9979929 C156.50042975 93.99924468 152.66200192 94.00044817 148.82357407 94.00161362 C147.41058762 94.00204906 147.41058762 94.00204906 145.969056 94.0024933 C131.08122499 94.00681091 116.19341562 94.00110146 101.30558801 93.99117342 C86.64998138 93.98161289 71.99440799 93.98284251 57.33880327 93.99537965 C48.75825693 94.00240299 40.17780642 94.0013596 31.59726701 93.98803127 C25.88227981 93.97998555 20.16736439 93.98302617 14.45238366 93.9946809 C11.22326477 94.00096792 7.99436734 94.00122522 4.76525296 93.9911137 C-79.3808442 93.74578416 -157.49224846 127.86909759 -214.88639832 189.37752342 Z " fill="#000001" transform="translate(492.8863983154297,-0.37752342224121094)"/>
<path d="M0 0 C2.66343197 -0.00239591 5.32685266 -0.00558386 7.99028146 -0.0097166 C13.75108845 -0.01708657 19.51185835 -0.01720199 25.27266747 -0.01232711 C33.89692253 -0.00506548 42.52114614 -0.00948304 51.14540041 -0.01600846 C65.8510886 -0.0267974 80.55676395 -0.0281779 95.26245499 -0.02431011 C110.1515956 -0.02042544 125.04072666 -0.02090214 139.92986679 -0.02661991 C141.34397374 -0.02715815 141.34397374 -0.02715815 142.7866485 -0.02770726 C146.62670778 -0.02918228 150.46676706 -0.03068669 154.30682632 -0.03222873 C193.22996454 -0.04784031 232.15309619 -0.05054523 271.07623698 -0.04807267 C276.44931365 -0.0477342 281.82239032 -0.0474121 287.195467 -0.04710698 C288.26278359 -0.04704594 289.33010019 -0.04698489 290.42975972 -0.046922 C314.11120134 -0.04564865 337.79264206 -0.04825414 361.47408342 -0.05163305 C366.88578203 -0.0524038 372.29748064 -0.05314854 377.70917925 -0.05389806 C379.88121671 -0.05419976 382.05325416 -0.05450164 384.22529162 -0.05480371 C385.30195416 -0.05495338 386.37861671 -0.05510306 387.48790539 -0.05525728 C389.66575295 -0.05556081 391.8436005 -0.0558655 394.02144806 -0.05617132 C455.79673898 -0.0648414 517.5720291 -0.06949041 579.34732056 -0.06522369 C581.06224134 -0.06510661 581.06224134 -0.06510661 582.811807 -0.06498716 C595.55980054 -0.0641144 608.30779408 -0.06318514 621.05578762 -0.06223653 C622.2066828 -0.06215102 623.35757797 -0.06206551 624.54334876 -0.06197741 C634.10475119 -0.06126672 634.10475119 -0.06126672 638.50622943 -0.06093518 C712.11103808 -0.05540018 785.71583418 -0.06294055 859.32064056 -0.08170605 C877.86667376 -0.08642851 896.41270697 -0.09110913 914.95874023 -0.09554291 C916.67182063 -0.09595289 916.67182063 -0.09595289 918.4195087 -0.09637116 C953.63566512 -0.10474647 988.8518205 -0.10942249 1024.06797791 -0.11025047 C1025.7271757 -0.11029002 1025.7271757 -0.11029002 1027.41989264 -0.11033037 C1051.70562851 -0.11087123 1075.99136429 -0.11049852 1100.27710013 -0.10929066 C1108.96755114 -0.10886506 1117.65800215 -0.10849993 1126.34845317 -0.10816122 C1128.51028879 -0.10807591 1130.67212441 -0.10798698 1132.83396003 -0.1078944 C1167.23266219 -0.10644765 1201.6313558 -0.11355876 1236.03005591 -0.12489836 C1271.65346809 -0.13656563 1307.27686506 -0.13709322 1342.90027732 -0.12505493 C1346.73236285 -0.12380319 1350.5644484 -0.1225997 1354.39653397 -0.12143421 C1355.33694652 -0.12114392 1356.27735908 -0.12085362 1357.24626899 -0.12055453 C1372.08648953 -0.11624329 1386.92668832 -0.12193519 1401.76690544 -0.1318744 C1416.3890335 -0.14145412 1431.01112826 -0.14017988 1445.63325443 -0.12766818 C1453.44234381 -0.12127401 1461.25136144 -0.1194586 1469.06044608 -0.13153151 C1564.43360557 -0.27108212 1652.65141527 15.89692977 1750.68880463 89.25447559 C1752.11773041 90.40303028 1752.11773041 90.40303028 1753.57552338 91.57478809 C1762.21777974 98.63247184 1770.10260621 106.451802 1778.00130463 114.31697559 C1778.56092896 114.87142353 1779.12055328 115.42587147 1779.69713593 115.99712086 C1786.84519916 123.09306294 1793.4291255 130.35337316 1799.68880463 138.25447559 C1800.55195811 139.28222285 1801.4203629 140.30563008 1802.29817963 141.32088184 C1818.98826708 160.78249842 1832.72489846 182.6287943 1844.68880463 205.25447559 C1845.13079193 206.0878545 1845.57277924 206.92123341 1846.0281601 207.77986622 C1869.67350649 252.73708145 1883.79241377 302.6130603 1887.68880463 353.25447559 C1887.77339935 354.30175831 1887.77339935 354.30175831 1887.85970306 355.37019825 C1895.68733589 456.04096712 1862.09794963 556.70184339 1796.75130463 633.31697559 C1784.9061041 647.06176981 1772.54789462 660.51072039 1758.68880463 672.25447559 C1757.67471344 673.1425778 1756.66179672 674.032022 1755.64974213 674.92244434 C1735.13674413 692.88428081 1712.53762316 708.07973047 1688.68880463 721.25447559 C1687.89635345 721.69855762 1687.10390228 722.14263966 1686.28743744 722.60017872 C1631.01731964 753.41665033 1567.78611956 767.82012135 1504.80240631 767.63199902 C1502.10071338 767.63513736 1499.39904529 767.63946576 1496.69735897 767.64521211 C1490.85888045 767.65527952 1485.02048636 767.65447798 1479.18200624 767.64616148 C1470.44160663 767.63376819 1461.70127413 767.63895915 1452.9608728 767.64730941 C1438.05673435 767.66104461 1423.15262673 767.66069118 1408.24848557 767.65246677 C1393.16023002 767.64419168 1378.07199472 767.64248905 1362.98373795 767.64867878 C1362.0281409 767.6490663 1361.07254385 767.64945382 1360.08798932 767.64985308 C1356.19552227 767.65145302 1352.30305525 767.65309916 1348.41058825 767.6548039 C1312.21591879 767.67064442 1276.02126291 767.67176018 1239.82659149 767.66336155 C1238.75562524 767.66311316 1237.68465899 767.66286478 1236.58123922 767.66260886 C1234.97219824 767.66223568 1234.97219824 767.66223568 1233.33065137 767.66185496 C1200.61935585 767.65427835 1167.90806593 767.65233451 1135.19676971 767.65592289 C1133.00426846 767.65615533 1130.81176721 767.6563868 1128.61926595 767.6566173 C1119.80799022 767.65754874 1110.99671449 767.65850475 1102.18543877 767.65949659 C1077.55595063 767.6622473 1052.92646246 767.66395933 1028.29697418 767.664855 C1027.17550786 767.66489594 1026.05404153 767.66493688 1024.89859138 767.66497906 C989.17643484 767.66620646 953.45428026 767.66282845 917.73212433 767.65630627 C916.57391062 767.65609552 915.41569691 767.65588477 914.22238582 767.65566764 C895.4150459 767.652233 876.60770602 767.64857452 857.80036614 767.64489712 C783.21336887 767.63032868 708.62638776 767.63100488 634.03939056 767.64558887 C615.24142203 767.6492526 596.4434535 767.65288581 577.64548492 767.65630627 C576.48794567 767.65651761 575.33040641 767.65672896 574.1377902 767.6569467 C538.45207157 767.66341753 502.76635427 767.66615765 467.08063507 767.664855 C465.95999756 767.66481425 464.83936005 767.6647735 463.68476383 767.66473151 C439.08240564 767.66379398 414.48004758 767.66189287 389.87768953 767.65912349 C381.07440263 767.65813612 372.27111572 767.65719687 363.46782882 767.65627136 C361.27790245 767.6560392 359.08797608 767.655803 356.89804971 767.65556277 C324.19748745 767.65198542 291.4969315 767.65502466 258.79637003 767.66260886 C257.18992066 767.66298144 257.18992066 767.66298144 255.55101776 767.66336155 C254.48203672 767.6636096 253.41305567 767.66385764 252.31168127 767.66411321 C216.21908181 767.67239657 180.1264986 767.66932639 144.03390145 767.65351932 C140.15389142 767.65186234 136.27388137 767.65025222 132.39387131 767.64867878 C131.44168378 767.64828816 130.48949626 767.64789754 129.50845456 767.64749508 C114.46441978 767.64159048 99.42040529 767.6456842 84.37637234 767.6539858 C69.56434365 767.66194454 54.752349 767.6590944 39.9403246 767.64494353 C31.2702646 767.63697521 22.60029826 767.63703845 13.93024285 767.64938832 C8.15350614 767.65678376 2.37684151 767.65307458 -3.3998866 767.64078776 C-6.66246476 767.63414518 -9.92482548 767.63349252 -13.18740095 767.64323732 C-36.00051446 767.70648764 -58.6387453 765.9815319 -81.06119537 761.62947559 C-82.02988052 761.44389591 -82.02988052 761.44389591 -83.01813507 761.25456715 C-140.70437645 750.10955928 -195.97147192 725.42520417 -242.31119537 689.25447559 C-243.43569331 688.39704592 -244.56072039 687.54030988 -245.68619537 686.68416309 C-252.94888321 681.11727032 -259.77003557 675.22867297 -266.42838287 668.95369434 C-268.68169563 666.84388524 -270.95744851 664.81125902 -273.31119537 662.81697559 C-281.95236999 655.33162688 -289.93899414 646.97980237 -297.31119537 638.25447559 C-298.19786928 637.24157619 -299.08602838 636.22997593 -299.97525787 635.21931934 C-317.3981148 615.32470763 -332.50670098 593.38881084 -345.31119537 570.25447559 C-345.7773526 569.41255665 -346.24350983 568.5706377 -346.72379303 567.70320606 C-372.46727823 520.75421411 -387.99482917 468.63863417 -392.31119537 415.25447559 C-392.36904205 414.54758595 -392.42688873 413.8406963 -392.48648834 413.11238575 C-396.55208153 360.74223725 -389.58482793 307.80137607 -372.31119537 258.25447559 C-372.01745026 257.39966602 -371.72370514 256.54485645 -371.42105865 255.66414356 C-355.54254055 209.73147651 -330.2899584 167.73395341 -298.31119537 131.25447559 C-297.53389069 130.36502247 -296.756586 129.47556934 -295.95572662 128.55916309 C-290.09632597 122.01973661 -283.94665925 115.76385286 -277.76374054 109.53178883 C-276.35392915 108.11007029 -274.94809858 106.68440771 -273.54239655 105.25862598 C-267.44194527 99.15054029 -261.05234147 93.6385434 -254.31119537 88.25447559 C-253.09801538 87.23024102 -251.88902675 86.20099995 -250.68619537 85.16463184 C-233.548069 70.59886528 -214.10394355 58.24361055 -194.42301178 47.41756153 C-192.390729 46.29827885 -190.37245899 45.15654202 -188.35416412 44.01228809 C-151.78712853 23.62139476 -110.28599112 11.0687815 -69.12369537 4.44197559 C-67.92736481 4.24684376 -66.73103424 4.05171192 -65.49845123 3.850667 C-43.77665568 0.57425159 -21.92974328 -0.04157959 0 0 Z M-181.31119537 151.25447559 C-181.88531158 151.68582813 -182.4594278 152.11718067 -183.05094147 152.5616045 C-202.52468436 167.25947768 -221.68315078 184.70749346 -236.31119537 204.25447559 C-236.81392975 204.90786915 -237.31666412 205.5612627 -237.83463287 206.23445606 C-246.93254616 218.06017112 -254.96053435 230.27449386 -262.31119537 243.25447559 C-262.71676666 243.96249317 -263.12233795 244.67051075 -263.54019928 245.39998341 C-294.59564226 300.0169711 -306.34792458 368.33034911 -295.31119537 430.25447559 C-295.13958893 431.23400196 -294.96798248 432.21352833 -294.79117584 433.22273731 C-286.22624944 480.68574771 -266.68679607 525.67039902 -236.31119537 563.25447559 C-235.52228912 564.25478809 -234.73338287 565.25510059 -233.92057037 566.28572559 C-222.99983485 579.9562866 -210.81030153 593.10632754 -197.11197662 604.00056934 C-195.30634615 605.45363599 -193.52971587 606.9438738 -191.79166412 608.47713184 C-175.25964763 622.97592815 -155.89404885 634.40023593 -136.31119537 644.25447559 C-135.51391022 644.65714649 -134.71662506 645.05981739 -133.89517975 645.47469044 C-104.61593637 660.0108734 -71.73438833 668.76878812 -39.31119537 672.25447559 C-38.11182468 672.38676533 -38.11182468 672.38676533 -36.88822427 672.52172758 C-24.81967689 673.64493161 -12.70272541 673.39371293 -0.59454346 673.38311005 C2.0542567 673.3844573 4.70305395 673.38620061 7.35185325 673.38842228 C13.1209384 673.39246303 18.89001454 673.39280774 24.65910059 673.39071634 C33.29576328 673.3876026 41.93241772 673.39025925 50.56907981 673.39401504 C65.2903839 673.40024544 80.01168505 673.40172165 94.73299026 673.40059757 C109.6501538 673.39947289 124.56731484 673.40050801 139.484478 673.40417004 C140.89815499 673.40451452 140.89815499 673.40451452 142.34039112 673.40486595 C146.17891249 673.4058076 150.01743387 673.40676329 153.85595524 673.40773715 C193.89501101 673.4178804 233.93406539 673.42094309 273.9731223 673.42152926 C278.28261419 673.421594 282.59210608 673.42166194 286.90159798 673.42173266 C287.9710134 673.42174967 289.04042883 673.42176667 290.14225078 673.42178419 C313.84233909 673.42219268 337.54242712 673.42438271 361.24251528 673.42688851 C371.00197439 673.42791687 380.76143351 673.4289069 390.52089262 673.42990476 C391.59923664 673.43001535 392.67758067 673.43012594 393.78860178 673.43023988 C455.58269044 673.43656392 517.37677892 673.440689 579.17086792 673.44023132 C581.48337286 673.44021554 583.79587779 673.44019981 586.10838273 673.44018411 C596.5491099 673.44011073 606.98983707 673.44002256 617.43056424 673.43993023 C622.08633217 673.43988911 626.74210011 673.43984896 631.39786804 673.43980892 C633.72816373 673.43978852 636.05845942 673.4397675 638.38875511 673.43974586 C712.07308356 673.43906563 785.75740721 673.4463826 859.44173431 673.46028614 C878.00622049 673.46378718 896.57070666 673.46725665 915.13519287 673.47055054 C916.27829221 673.47075341 917.42139154 673.47095629 918.59913025 673.47116531 C953.83282568 673.47738069 989.06652072 673.48114594 1024.30021667 673.48240852 C1025.95961943 673.48246845 1025.95961943 673.48246845 1027.65254548 673.48252959 C1051.93834579 673.48338288 1076.22414608 673.48364405 1100.5099464 673.48335921 C1109.19996363 673.48326273 1117.88998087 673.48321068 1126.5799981 673.48318048 C1128.74184145 673.48317257 1130.90368481 673.48316236 1133.06552816 673.48314986 C1167.50519783 673.48297357 1201.94486337 673.48867004 1236.38453186 673.49730367 C1271.07439355 673.50595582 1305.76424954 673.50814297 1340.45411186 673.50154235 C1345.25004881 673.50063008 1350.04598578 673.4997868 1354.84192276 673.49898434 C1355.78203562 673.49882425 1356.72214848 673.49866416 1357.69074961 673.49849922 C1372.56288892 673.4961483 1387.43501835 673.50049898 1402.3071558 673.50765552 C1416.9391804 673.51455577 1431.57119046 673.51429134 1446.20321474 673.50646339 C1454.77556344 673.50208982 1463.34786926 673.50313487 1471.92021439 673.51233017 C1477.62347018 673.51789669 1483.32669416 673.51612338 1489.02994754 673.50854739 C1492.25647184 673.50446187 1495.48289663 673.50446109 1498.70941864 673.51129808 C1517.23585065 673.54791267 1535.60087063 672.84653732 1553.87630463 669.56697559 C1554.80934418 669.40108936 1555.74238373 669.23520313 1556.7036972 669.06429005 C1608.41202456 659.40129904 1657.67263137 635.99618952 1696.46614838 600.29353809 C1698.48442566 598.44197264 1700.54229598 596.65614559 1702.62630463 594.87947559 C1710.55535266 587.96162195 1717.98317671 580.36107648 1724.68880463 572.25447559 C1725.11242279 571.74465137 1725.53604095 571.23482716 1725.97249603 570.70955372 C1759.61835588 530.03442161 1781.57635185 482.26818492 1790.68880463 430.25447559 C1790.85396576 429.32780079 1791.01912689 428.40112598 1791.18929291 427.44637012 C1796.12537158 398.36587352 1795.72493207 366.27944948 1790.68880463 337.25447559 C1790.50608002 336.17762501 1790.32335541 335.10077442 1790.13509369 333.991292 C1779.52818307 273.82450588 1749.96107761 220.5415588 1707.12630463 177.44197559 C1706.64333923 176.95365253 1706.16037384 176.46532948 1705.66277313 175.96220875 C1699.02122468 169.26484778 1692.10624057 163.08612986 1684.68880463 157.25447559 C1684.02066742 156.72168995 1683.35253021 156.1889043 1682.66414642 155.63997364 C1625.00132379 110.03978758 1556.66930717 94.06131396 1484.59700108 94.12584114 C1481.9808467 94.12449252 1479.36469252 94.12270752 1476.7485387 94.12052891 C1471.06967877 94.11650255 1465.39082801 94.11613691 1459.71196718 94.11823485 C1451.21036481 94.12135827 1442.70877077 94.11868458 1434.207169 94.11493614 C1419.71339637 94.10871635 1405.21962673 94.10722796 1390.72585297 94.10835361 C1376.04502453 94.10947942 1361.36419864 94.10843928 1346.68337059 94.10478115 C1345.75486917 94.1045515 1344.82636775 94.10432184 1343.86972992 94.10408523 C1340.08784627 94.10314356 1336.30596263 94.10218786 1332.52407898 94.10121404 C1293.1039178 94.0910784 1253.68375804 94.08800838 1214.26359571 94.08742193 C1210.02260002 94.08735718 1205.78160433 94.08728924 1201.54060864 94.08721852 C1200.48815595 94.08720152 1199.43570325 94.08718451 1198.35135805 94.08716699 C1175.01361181 94.08675828 1151.67586585 94.08456752 1128.33811976 94.08206268 C1118.72394752 94.0810343 1109.10977527 94.08004426 1099.49560302 94.07904643 C1098.43327187 94.07893584 1097.37094071 94.07882525 1096.27641769 94.07871131 C1035.41160173 94.07238851 974.54678595 94.06826206 913.68196964 94.06871986 C911.40491476 94.06873564 909.12785987 94.06875138 906.85080499 94.06876707 C896.57043125 94.06884045 886.2900575 94.06892862 876.00968376 94.06902096 C871.42554315 94.06906208 866.84140254 94.06910223 862.25726193 94.06914227 C859.96281893 94.06916267 857.66837592 94.06918369 855.37393292 94.06920533 C782.82760226 94.06988551 710.28127649 94.06256879 637.7349472 94.04866505 C619.45700869 94.04516392 601.17907018 94.04169441 582.90113163 94.03840065 C581.77562771 94.03819778 580.6501238 94.0379949 579.4905137 94.03778588 C544.79080484 94.03156904 510.09109638 94.02780496 475.39138699 94.02654266 C473.75677623 94.02648274 473.75677623 94.02648274 472.08914304 94.0264216 C448.16447378 94.02556825 424.23980454 94.02530716 400.31513526 94.02559198 C391.75404914 94.02568846 383.19296301 94.0257405 374.63187689 94.02577071 C372.50216827 94.02577862 370.37245965 94.02578883 368.24275103 94.02580133 C334.3374614 94.0259775 300.43217596 94.02028585 266.52688753 94.01164751 C232.36942837 94.00298917 198.211975 94.00081354 164.0545152 94.00740884 C159.32862622 94.00832106 154.60273722 94.00916435 149.87684822 94.00996685 C148.95049855 94.01012694 148.02414888 94.01028702 147.069728 94.01045196 C132.43591746 94.01279969 117.80211698 94.00845963 103.16830833 94.00129566 C88.75863464 93.99438268 74.3489757 93.9946745 59.93930232 94.0024878 C51.50543672 94.00684934 43.07161474 94.0058454 34.63775282 93.99662101 C29.01734449 93.99102965 23.3969683 93.99285881 17.77656238 94.0004038 C14.60290196 94.00446586 11.42934158 94.00453713 8.2556837 93.99765311 C-60.23621859 93.85916197 -125.8974932 109.25758143 -181.31119537 151.25447559 Z " fill="#000001" transform="translate(502.31119537353516,1732.745524406433)"/>
<path d="M0 0 C0.59071289 0.42104004 1.18142578 0.84208008 1.79003906 1.27587891 C25.35522481 18.21634104 45.7951189 40.68609091 60 66 C60.4213623 66.74846191 60.84272461 67.49692383 61.27685547 68.26806641 C72.60743935 88.61645968 80.1296182 109.2317609 85 132 C85.17402344 132.81114258 85.34804688 133.62228516 85.52734375 134.45800781 C96.28570724 186.8050037 84.34320912 244.0238075 55.57641602 288.73364258 C41.13631918 310.52558811 23.32954383 330.74796085 2 346 C1.33307129 346.47888672 0.66614258 346.95777344 -0.02099609 347.45117188 C-45.87181976 380.00070652 -102.99244911 393.91593503 -158.6796875 384.9765625 C-195.27026079 378.49572389 -228.93983657 364.33240834 -258 341 C-258.56912109 340.54657227 -259.13824219 340.09314453 -259.72460938 339.62597656 C-283.51412305 320.53579824 -301.99645701 297.02582506 -316 270 C-316.92039062 268.25783203 -316.92039062 268.25783203 -317.859375 266.48046875 C-330.20682881 241.70060158 -337.96566992 212.78649132 -338.23828125 185.03125 C-338.24802979 184.20130524 -338.25777832 183.37136047 -338.26782227 182.51626587 C-338.4408834 163.96303102 -338.16926903 146.17338801 -334 128 C-333.81276367 127.154375 -333.62552734 126.30875 -333.43261719 125.4375 C-321.14296675 71.09984002 -286.87835556 22.91086179 -239.9375 -7 C-237.63705885 -8.36322438 -235.3328036 -9.69480828 -233 -11 C-232.19208008 -11.45375 -231.38416016 -11.9075 -230.55175781 -12.375 C-157.91718051 -52.72462414 -67.74833065 -48.77947252 0 0 Z M-212.08203125 91.8046875 C-235.06174729 118.10733601 -245.69692594 149.17530867 -244 184 C-241.3919051 215.42943348 -225.62432458 244.38861171 -202 265 C-177.27012119 285.50388686 -146.14241098 295.01428299 -114.1796875 292.7265625 C-86.42697562 289.80232049 -62.13266468 278.28817372 -42 259 C-41.25234375 258.31550781 -40.5046875 257.63101563 -39.734375 256.92578125 C-19.06543832 237.37701421 -7.01184949 208.05082858 -5.61328125 179.86328125 C-4.79607912 150.49833388 -13.05802675 120.25185432 -33 98 C-33.70898438 97.17242188 -34.41796875 96.34484375 -35.1484375 95.4921875 C-54.23619878 73.59149298 -81.69074917 57.64268307 -111 55 C-149.43132843 52.72481721 -185.01697409 63.29693007 -212.08203125 91.8046875 Z " fill="#000001" transform="translate(760,1943)"/>
<path d="M0 0 C0.95543701 0.6801416 0.95543701 0.6801416 1.93017578 1.37402344 C11.20072755 8.0094602 19.80920163 15.05938191 28 23 C28.55929199 23.53351074 29.11858398 24.06702148 29.69482422 24.61669922 C69.96057259 63.10520076 92.27619139 116.52470467 94 172 C94.77118046 231.25092118 72.55983898 284.67674944 32.3984375 327.79296875 C26.64015449 333.68835374 20.46978823 338.90657593 14 344 C13.04867188 344.77988281 12.09734375 345.55976562 11.1171875 346.36328125 C-32.02804394 380.95670851 -88.52023497 395.44508767 -143.13574219 389.98657227 C-187.54053224 385.00278177 -229.86185191 366.41325885 -262.7421875 336.0703125 C-264.76475254 334.21571134 -266.83483984 332.44964839 -268.9375 330.6875 C-305.95976847 298.19099982 -328.27571077 246.35450998 -333 198 C-333.15887581 195.05461636 -333.20934841 192.11332946 -333.23828125 189.1640625 C-333.24812042 188.33570892 -333.25795959 187.50735535 -333.26809692 186.65390015 C-333.78259796 132.02689593 -319.28204925 80.91428072 -283 39 C-282.30648437 38.195625 -281.61296875 37.39125 -280.8984375 36.5625 C-270.57203055 24.84672194 -259.66524241 14.16003006 -247 5 C-246.0090332 4.28312012 -246.0090332 4.28312012 -244.99804688 3.55175781 C-219.41675185 -14.70168742 -190.87322612 -27.07561412 -160 -33 C-159.18692383 -33.16226074 -158.37384766 -33.32452148 -157.53613281 -33.49169922 C-104.53473413 -43.66167057 -43.89266903 -31.68250331 0 0 Z M-212 101 C-232.89117632 125.85679298 -241.55292345 158.42272711 -238.7890625 190.44384766 C-235.36771957 221.30721202 -219.37763092 250.47025302 -195.23681641 270.05932617 C-182.74996774 279.76774698 -168.64315015 287.15407265 -153.5 291.6875 C-152.82412842 291.89012451 -152.14825684 292.09274902 -151.4519043 292.30151367 C-120.91117246 301.0383718 -88.99631136 296.16502374 -61.36889648 281.16625977 C-34.66405917 266.06667987 -14.06378547 240.68642391 -5.5546875 211.140625 C3.38381578 178.5327401 -0.39474595 146.47471428 -17 117 C-21.84159458 108.85731821 -27.45058505 101.82367856 -34 95 C-34.75925781 94.17757812 -35.51851562 93.35515625 -36.30078125 92.5078125 C-57.35661584 70.3836786 -87.48054547 58.59992396 -117.76953125 57.6484375 C-154.66396661 57.26075517 -187.72879275 73.66069924 -212 101 Z " fill="#000001" transform="translate(755,206)"/>
<path d="M0 0 C3.05031809 2.98470899 5.79619121 6.12622801 8.47558594 9.44384766 C9.37369844 10.51833814 10.27217101 11.59252771 11.17089844 12.66650391 C48.11244521 57.29694218 64.47843391 113.88574365 59.47558594 171.44384766 C54.7581489 216.8834628 35.34783184 258.25921738 5.47558594 292.44384766 C4.75242187 293.29076172 4.02925781 294.13767578 3.28417969 295.01025391 C-0.39199353 299.26195327 -4.19867171 303.09931619 -8.49707031 306.72119141 C-9.82390706 307.84861916 -11.12519439 309.00700083 -12.39550781 310.19775391 C-24.04365932 321.07390317 -37.49396858 330.0456297 -51.58300781 337.42626953 C-53.49998808 338.4310449 -55.40239135 339.46027584 -57.30566406 340.49072266 C-72.37305703 348.49310533 -88.31044664 353.94219653 -104.89941406 357.81884766 C-106.42961182 358.1768042 -106.42961182 358.1768042 -107.99072266 358.54199219 C-122.95301598 361.84703158 -137.63104163 362.85653386 -152.89941406 362.81884766 C-154.20968063 362.81753342 -154.20968063 362.81753342 -155.54641724 362.81619263 C-198.49689992 362.67481642 -241.61281786 350.03246078 -276.52441406 324.44384766 C-277.57628906 323.67556641 -278.62816406 322.90728516 -279.71191406 322.11572266 C-287.42868227 316.37638344 -294.58931312 310.10299918 -301.52441406 303.44384766 C-302.08805664 302.90743652 -302.65169922 302.37102539 -303.23242188 301.81835938 C-311.82517278 293.60281647 -319.52953354 285.05809917 -326.52441406 275.44384766 C-327.12600342 274.63270508 -327.12600342 274.63270508 -327.73974609 273.80517578 C-345.98527597 248.96083351 -357.07752391 220.35619579 -363.52441406 190.44384766 C-363.79560059 189.22133301 -363.79560059 189.22133301 -364.07226562 187.97412109 C-369.35316401 163.03946173 -368.85479197 133.31194932 -363.52441406 108.44384766 C-363.358125 107.61046875 -363.19183594 106.77708984 -363.02050781 105.91845703 C-359.0147058 86.05264631 -352.19161768 67.2420467 -342.52441406 49.44384766 C-342.17266113 48.78191406 -341.8209082 48.11998047 -341.45849609 47.43798828 C-333.45146214 32.39556045 -323.74141514 19.23340369 -312.52441406 6.44384766 C-311.72777344 5.52345703 -310.93113281 4.60306641 -310.11035156 3.65478516 C-305.55239851 -1.52969065 -300.81023743 -6.12996115 -295.52441406 -10.55615234 C-294.61433594 -11.36568359 -293.70425781 -12.17521484 -292.76660156 -13.00927734 C-226.05965192 -71.94464761 -122.73028948 -81.11996313 0 0 Z M-231.52441406 59.44384766 C-232.22566406 60.01490234 -232.92691406 60.58595703 -233.64941406 61.17431641 C-239.43048986 65.92789631 -243.97468231 71.52589947 -248.52441406 77.44384766 C-249.43707031 78.61560547 -249.43707031 78.61560547 -250.36816406 79.81103516 C-268.27016546 103.97873705 -275.72080362 135.39408933 -272.02832031 165.09619141 C-268.21594622 190.33772779 -257.22051538 212.9971776 -239.52441406 231.44384766 C-238.29271484 232.78769531 -238.29271484 232.78769531 -237.03613281 234.15869141 C-217.20077067 255.11071098 -187.90858124 267.5005859 -159.19238281 268.72900391 C-128.313963 269.48999636 -100.24229445 260.38337762 -76.52441406 240.44384766 C-75.65429688 239.73744141 -74.78417969 239.03103516 -73.88769531 238.30322266 C-54.84972156 222.16428102 -42.15756806 198.53336552 -36.52441406 174.44384766 C-36.29882812 173.48091797 -36.07324219 172.51798828 -35.84082031 171.52587891 C-30.08777051 141.49099129 -36.78134528 108.98600373 -53.74462891 83.61914062 C-56.48731405 79.73230792 -59.4564522 76.07783659 -62.52441406 72.44384766 C-63.30429687 71.50025391 -64.08417969 70.55666016 -64.88769531 69.58447266 C-84.14206277 47.27335619 -112.40293601 33.70348511 -141.52441406 30.44384766 C-174.62283458 28.5658536 -206.50142814 36.99924373 -231.52441406 59.44384766 Z " fill="#000001" transform="translate(788.5244140625,1100.55615234375)"/>
</svg>
