<?xml version="1.0" encoding="UTF-8"?>
<svg version="1.1" xmlns="http://www.w3.org/2000/svg" width="2500" height="2500">
<path d="M0 0 C-1.26483804 4.00550456 -2.73486925 7.7370042 -4.58203125 11.5078125 C-5.09491699 12.56194336 -5.60780273 13.61607422 -6.13623047 14.70214844 C-6.68939941 15.83168945 -7.24256836 16.96123047 -7.8125 18.125 C-9.00169737 20.56886281 -10.18709443 23.01455257 -11.37109375 25.4609375 C-11.67416443 26.08689819 -11.97723511 26.71285889 -12.28948975 27.35778809 C-15.39404143 33.78674124 -18.3880406 40.26569532 -21.375 46.75 C-26.28061438 57.38417335 -31.33249539 67.93758056 -36.4574585 78.46716309 C-40.90109377 87.60179079 -45.24826235 96.77393874 -49.5 106 C-54.05715936 115.88881132 -58.7351142 125.71029518 -63.5 135.5 C-68.8409965 146.4735771 -74.04647605 157.49833041 -79.15625 168.58203125 C-83.29909388 177.54637558 -87.572389 186.44277904 -91.88653564 195.32531738 C-96.16212353 204.1334941 -100.33819146 212.98311751 -104.4375 221.875 C-109.3219783 232.46798838 -114.35297659 242.97972548 -119.45773315 253.4677124 C-123.90127558 262.60215714 -128.24834826 271.77412516 -132.5 281 C-137.36271728 291.55185696 -142.37364213 302.02224843 -147.45800781 312.46826172 C-151.90145739 321.60252349 -156.24843417 330.77431158 -160.5 340 C-165.05715936 349.88881132 -169.7351142 359.71029518 -174.5 369.5 C-179.8409965 380.4735771 -185.04647605 391.49833041 -190.15625 402.58203125 C-194.29909388 411.54637558 -198.572389 420.44277904 -202.88653564 429.32531738 C-207.16212353 438.1334941 -211.33819146 446.98311751 -215.4375 455.875 C-220.3219783 466.46798838 -225.35297659 476.97972548 -230.45773315 487.4677124 C-234.90127558 496.60215714 -239.24834826 505.77412516 -243.5 515 C-248.05715936 524.88881132 -252.7351142 534.71029518 -257.5 544.5 C-262.8409965 555.4735771 -268.04647605 566.49833041 -273.15625 577.58203125 C-277.29909388 586.54637558 -281.572389 595.44277904 -285.88653564 604.32531738 C-290.16212353 613.1334941 -294.33819146 621.98311751 -298.4375 630.875 C-303.3219783 641.46798838 -308.35297659 651.97972548 -313.45773315 662.4677124 C-317.90127558 671.60215714 -322.24834826 680.77412516 -326.5 690 C-331.36271728 700.55185696 -336.37364213 711.02224843 -341.45800781 721.46826172 C-345.90145739 730.60252349 -350.24843417 739.77431158 -354.5 749 C-359.05715936 758.88881132 -363.7351142 768.71029518 -368.5 778.5 C-373.8409965 789.4735771 -379.04647605 800.49833041 -384.15625 811.58203125 C-388.29909388 820.54637558 -392.572389 829.44277904 -396.88653564 838.32531738 C-401.16212353 847.1334941 -405.33819146 855.98311751 -409.4375 864.875 C-414.3219783 875.46798838 -419.35297659 885.97972548 -424.45773315 896.4677124 C-428.90127558 905.60215714 -433.24834826 914.77412516 -437.5 924 C-442.36271728 934.55185696 -447.37364213 945.02224843 -452.45800781 955.46826172 C-456.90145739 964.60252349 -461.24843417 973.77431158 -465.5 983 C-470.05715936 992.88881132 -474.7351142 1002.71029518 -479.5 1012.5 C-484.8409965 1023.4735771 -490.04647605 1034.49833041 -495.15625 1045.58203125 C-499.29909388 1054.54637558 -503.572389 1063.44277904 -507.88653564 1072.32531738 C-512.16212353 1081.1334941 -516.33819146 1089.98311751 -520.4375 1098.875 C-525.3219783 1109.46798838 -530.35297659 1119.97972548 -535.45773315 1130.4677124 C-539.90127558 1139.60215714 -544.24834826 1148.77412516 -548.5 1158 C-553.05715936 1167.88881132 -557.7351142 1177.71029518 -562.5 1187.5 C-567.8409965 1198.4735771 -573.04647605 1209.49833041 -578.15625 1220.58203125 C-582.29909388 1229.54637558 -586.572389 1238.44277904 -590.88653564 1247.32531738 C-595.16212353 1256.1334941 -599.33819146 1264.98311751 -603.4375 1273.875 C-608.3219783 1284.46798838 -613.35297659 1294.97972548 -618.45773315 1305.4677124 C-622.90127558 1314.60215714 -627.24834826 1323.77412516 -631.5 1333 C-636.36271728 1343.55185696 -641.37364213 1354.02224843 -646.45800781 1364.46826172 C-650.90145739 1373.60252349 -655.24843417 1382.77431158 -659.5 1392 C-664.05715936 1401.88881132 -668.7351142 1411.71029518 -673.5 1421.5 C-678.8409965 1432.4735771 -684.04647605 1443.49833041 -689.15625 1454.58203125 C-693.29909388 1463.54637558 -697.572389 1472.44277904 -701.88653564 1481.32531738 C-706.16212353 1490.1334941 -710.33819146 1498.98311751 -714.4375 1507.875 C-719.3219783 1518.46798838 -724.35297659 1528.97972548 -729.45773315 1539.4677124 C-733.90127558 1548.60215714 -738.24834826 1557.77412516 -742.5 1567 C-747.36271728 1577.55185696 -752.37364213 1588.02224843 -757.45800781 1598.46826172 C-761.90145739 1607.60252349 -766.24843417 1616.77431158 -770.5 1626 C-775.05716256 1635.88881826 -779.73531815 1645.71019136 -784.5 1655.5 C-791.04056113 1668.94084472 -797.37776025 1682.46543609 -803.63427734 1696.04101562 C-805.51519179 1700.11621817 -807.41160567 1704.18408707 -809.3125 1708.25 C-809.84488281 1709.38953125 -810.37726562 1710.5290625 -810.92578125 1711.703125 C-811.28027344 1712.46109375 -811.63476562 1713.2190625 -812 1714 C-812.66 1714 -813.32 1714 -814 1714 C-814 1435.48 -814 1156.96 -814 870 C-1082.29 870 -1350.58 870 -1627 870 C-1623.5907034 866.5907034 -1621.61091439 865.05343566 -1617.4765625 862.96875 C-1616.38529053 862.41219727 -1615.29401855 861.85564453 -1614.16967773 861.28222656 C-1612.99993408 860.6940918 -1611.83019043 860.10595703 -1610.625 859.5 C-1608.14761087 858.23852584 -1605.6733637 856.97094782 -1603.19921875 855.703125 C-1602.57992996 855.38655945 -1601.96064117 855.0699939 -1601.32258606 854.74383545 C-1595.97556959 852.00444326 -1590.69736386 849.15230868 -1585.4375 846.25 C-1576.09409316 841.10753194 -1566.68109626 836.10404708 -1557.25 831.125 C-1547.10388724 825.76751284 -1536.9699713 820.39094114 -1526.875 814.9375 C-1517.27192732 809.7497892 -1507.6427411 804.6134279 -1498 799.5 C-1488.31624465 794.36461439 -1478.64526377 789.20748032 -1469 784 C-1458.67026698 778.42297456 -1448.30939129 772.90661466 -1437.93847656 767.40673828 C-1427.89670502 762.08054449 -1417.87773162 756.71406107 -1407.87597656 751.31298828 C-1398.50045421 746.25586211 -1389.09047646 741.26487411 -1379.67800903 736.27700806 C-1370.35179631 731.33318675 -1361.06417138 726.32613157 -1351.81152344 721.24560547 C-1344.45527777 717.21889785 -1337.02388421 713.34550767 -1329.57910156 709.4855957 C-1323.2392145 706.1903685 -1316.94930268 702.81605442 -1310.6875 699.375 C-1301.25844249 694.1954386 -1291.76309624 689.14782149 -1282.25 684.125 C-1272.10394436 678.76740247 -1261.96997283 673.39094197 -1251.875 667.9375 C-1242.27192732 662.7497892 -1232.6427411 657.6134279 -1223 652.5 C-1213.31624465 647.36461439 -1203.64526377 642.20748032 -1194 637 C-1183.67026698 631.42297456 -1173.30939129 625.90661466 -1162.93847656 620.40673828 C-1153.9422763 615.63511947 -1144.96078531 610.83793022 -1136 606 C-1125.67026698 600.42297456 -1115.30939129 594.90661466 -1104.93847656 589.40673828 C-1095.9422763 584.63511947 -1086.96078531 579.83793022 -1078 575 C-1067.67026698 569.42297456 -1057.30939129 563.90661466 -1046.93847656 558.40673828 C-1037.9422763 553.63511947 -1028.96078531 548.83793022 -1020 544 C-1009.67026698 538.42297456 -999.30939129 532.90661466 -988.93847656 527.40673828 C-978.89670502 522.08054449 -968.87773162 516.71406107 -958.87597656 511.31298828 C-949.50045421 506.25586211 -940.09047646 501.26487411 -930.67800903 496.27700806 C-921.35179631 491.33318675 -912.06417138 486.32613157 -902.81152344 481.24560547 C-895.45527777 477.21889785 -888.02388421 473.34550767 -880.57910156 469.4855957 C-874.2392145 466.1903685 -867.94930268 462.81605442 -861.6875 459.375 C-852.25844249 454.1954386 -842.76309624 449.14782149 -833.25 444.125 C-823.10394436 438.76740247 -812.96997283 433.39094197 -802.875 427.9375 C-793.27192732 422.7497892 -783.6427411 417.6134279 -774 412.5 C-764.31624465 407.36461439 -754.64526377 402.20748032 -745 397 C-734.67026698 391.42297456 -724.30939129 385.90661466 -713.93847656 380.40673828 C-704.9422763 375.63511947 -695.96078531 370.83793022 -687 366 C-676.67026698 360.42297456 -666.30939129 354.90661466 -655.93847656 349.40673828 C-646.9422763 344.63511947 -637.96078531 339.83793022 -629 335 C-618.67026698 329.42297456 -608.30939129 323.90661466 -597.93847656 318.40673828 C-588.9422763 313.63511947 -579.96078531 308.83793022 -571 304 C-560.67026698 298.42297456 -550.30939129 292.90661466 -539.93847656 287.40673828 C-529.89670502 282.08054449 -519.87773162 276.71406107 -509.87597656 271.31298828 C-500.50045421 266.25586211 -491.09047646 261.26487411 -481.67800903 256.27700806 C-472.35179631 251.33318675 -463.06417138 246.32613157 -453.81152344 241.24560547 C-446.45527777 237.21889785 -439.02388421 233.34550767 -431.57910156 229.4855957 C-425.2392145 226.1903685 -418.94930268 222.81605442 -412.6875 219.375 C-403.25844249 214.1954386 -393.76309624 209.14782149 -384.25 204.125 C-374.10394436 198.76740247 -363.96997283 193.39094197 -353.875 187.9375 C-344.27192732 182.7497892 -334.6427411 177.6134279 -325 172.5 C-315.31624465 167.36461439 -305.64526377 162.20748032 -296 157 C-285.67026698 151.42297456 -275.30939129 145.90661466 -264.93847656 140.40673828 C-255.9422763 135.63511947 -246.96078531 130.83793022 -238 126 C-227.67026698 120.42297456 -217.30939129 114.90661466 -206.93847656 109.40673828 C-197.9422763 104.63511947 -188.96078531 99.83793022 -180 95 C-169.67026698 89.42297456 -159.30939129 83.90661466 -148.93847656 78.40673828 C-139.9422763 73.63511947 -130.96078531 68.83793022 -122 64 C-111.67026698 58.42297456 -101.30939129 52.90661466 -90.93847656 47.40673828 C-80.90104669 42.08284733 -70.88588601 36.7196322 -60.88916016 31.31958008 C-54.88346317 28.07935958 -48.86638932 24.86180676 -42.8359375 21.66796875 C-42.13814682 21.29833511 -41.44035614 20.92870148 -40.72142029 20.54786682 C-37.9125727 19.0602469 -35.10362772 17.57281419 -32.29385376 16.08694458 C-23.89155816 11.64187772 -15.50666297 7.17651744 -7.32373047 2.3347168 C-4.6172993 0.75962334 -3.20189499 0 0 0 Z " fill="#000000" transform="translate(2056,393)"/>
</svg>
