<?xml version="1.0" encoding="UTF-8"?>
<svg version="1.1" xmlns="http://www.w3.org/2000/svg" width="1280" height="1280">
<path d="M0 0 C0.74088867 0.03577148 1.48177734 0.07154297 2.24511719 0.10839844 C42.89648257 2.34234832 79.33933795 19.41930059 108.1875 47.9375 C109.05375 48.78973145 109.05375 48.78973145 109.9375 49.65917969 C114 53.75380408 114 53.75380408 114 56 C114.66 56 115.32 56 116 56 C117.55859375 57.87890625 117.55859375 57.87890625 119.4375 60.5625 C120.14777344 61.56152344 120.85804688 62.56054688 121.58984375 63.58984375 C121.97640137 64.13753418 122.36295898 64.68522461 122.76123047 65.24951172 C140.24918653 90.22815437 140.24918653 90.22815437 167.56640625 102.15234375 C173.90011141 103.15283575 179.7659236 102.92802187 186.125 102.3125 C187.23447998 102.21654541 188.34395996 102.12059082 189.48706055 102.02172852 C198.65288862 101.20078296 207.79864358 100.17687771 216.93212891 99.05395508 C257.86707124 94.04198514 302.22031802 99.2422091 336 125 C336.95132813 125.62390625 337.90265625 126.2478125 338.8828125 126.890625 C374.14581941 150.75281012 396.48224512 189.04892417 404.6484375 230.2734375 C407.84072788 248.27055283 407.05720551 265.5717029 405.125 283.625 C404.94855454 285.31894136 404.77277091 287.0129518 404.59765625 288.70703125 C403.97514347 294.71171511 403.35231795 300.71639225 402.70828247 306.71881104 C402.41970498 309.41106257 402.13718603 312.10389811 401.85546875 314.796875 C401.76673492 315.60806793 401.6780011 316.41926086 401.58657837 317.2550354 C399.98860217 332.71127034 402.46444941 346.627741 411.69140625 359.328125 C417.56902726 366.45948513 424.78345068 371.3587083 432.2890625 376.63671875 C443.58896706 384.61898617 454.9451419 393.46797225 464 404 C464 404.66 464 405.32 464 406 C464.66 406 465.32 406 466 406 C467.69921875 408.0546875 467.69921875 408.0546875 469.6875 410.875 C470.40292969 411.88949219 471.11835937 412.90398437 471.85546875 413.94921875 C472.56316406 414.95597656 473.27085937 415.96273438 474 417 C474.59425781 417.79019531 475.18851563 418.58039063 475.80078125 419.39453125 C481.24564588 426.74196927 485.09234817 434.7716751 489 443 C489.48726562 444.00675781 489.97453125 445.01351563 490.4765625 446.05078125 C500.80113924 467.93508348 505.23101272 492.86144624 504 517 C503.96422852 517.75764648 503.92845703 518.51529297 503.89160156 519.29589844 C501.66686195 561.53347306 483.69309775 600.86269534 452.54785156 629.62060547 C446.12306397 635.34616539 439.19164003 640.44022965 432.203125 645.44921875 C415.95967446 657.11890145 404.99064961 666.99859101 401.52587891 687.55859375 C400.51249857 694.81926181 401.35164591 701.9406346 402.125 709.1875 C402.2751509 710.75713819 402.42331123 712.32696795 402.56958008 713.89697266 C403.01521824 718.60138204 403.50167152 723.30091322 404 728 C404.07534973 728.71347595 404.15069946 729.4269519 404.22833252 730.16204834 C404.44446122 732.20576655 404.66163493 734.24937174 404.87890625 736.29296875 C405.08265869 738.21943237 405.08265869 738.21943237 405.29052734 740.18481445 C405.54527744 742.55292495 405.80913099 744.92008397 406.08447266 747.28588867 C407.2886025 758.07711653 407.54760311 768.89107731 406.25 779.6875 C406.16202148 780.43314209 406.07404297 781.17878418 405.98339844 781.94702148 C402.76241167 807.44118486 394.73575265 833.36357499 379 854 C378.37609375 854.95132813 377.7521875 855.90265625 377.109375 856.8828125 C364.53542056 875.46432296 346.67972243 892.2340342 327 903 C325.9171875 903.62390625 324.834375 904.2478125 323.71875 904.890625 C287.83984458 925.20211549 250.1563097 926.49998311 210.1875 922 C206.32578546 921.56821052 202.46385567 921.13890464 198.60115051 920.71606445 C196.21308785 920.45440558 193.82557814 920.18762962 191.43876648 919.91479492 C182.03491799 918.88034427 173.14668837 918.23025722 163.9375 920.6875 C163.2470459 920.86901611 162.5565918 921.05053223 161.84521484 921.23754883 C146.99006969 925.35232969 137.99815607 935.08387045 129.54296875 947.47729492 C124.80523059 954.40501906 119.53897692 960.70610705 114 967 C113.34128906 967.76957031 112.68257812 968.53914063 112.00390625 969.33203125 C104.10102087 978.53739663 104.10102087 978.53739663 100 982 C99.34 982 98.68 982 98 982 C98 982.66 98 983.32 98 984 C95.52481184 986.23320049 92.7134801 988.06753802 90 990 C89.29875 990.52722656 88.5975 991.05445313 87.875 991.59765625 C71.55066472 1003.58583997 53.35305617 1011.42692069 34 1017 C32.98808594 1017.30035156 31.97617187 1017.60070313 30.93359375 1017.91015625 C-9.44758153 1028.61036115 -53.05968538 1019.87717481 -89 1000 C-111.06906359 987.01331139 -127.57321168 969.00739346 -142.6887207 948.71875 C-154.01472194 933.53004217 -163.93375634 923.28515047 -183.1875 919.296875 C-191.82961707 918.38465153 -200.3576679 919.33263684 -208.953125 920.3125 C-211.45441679 920.5860316 -213.95571921 920.85946607 -216.45703125 921.1328125 C-220.35167658 921.56495204 -224.24603027 921.99955455 -228.14013672 922.43652344 C-231.93128662 922.85994932 -235.7233714 923.2740929 -239.515625 923.6875 C-240.65880188 923.81874268 -241.80197876 923.94998535 -242.97979736 924.08520508 C-253.86432428 925.26541922 -264.79949971 925.55860966 -275.6875 924.25 C-276.43314209 924.16202148 -277.17878418 924.07404297 -277.94702148 923.98339844 C-303.44118486 920.76241167 -329.36357499 912.73575265 -350 897 C-350.94359375 896.38511719 -351.8871875 895.77023437 -352.859375 895.13671875 C-356.25632218 892.82561165 -359.33109955 890.30503176 -362.4375 887.625 C-363.58715185 886.63791864 -364.73689053 885.6509384 -365.88671875 884.6640625 C-366.4286084 884.19774414 -366.97049805 883.73142578 -367.52880859 883.25097656 C-368.69590774 882.2585743 -369.8853128 881.29241416 -371.08203125 880.3359375 C-376.55384359 875.95336181 -380.68575818 870.48875962 -385 865 C-385.62132812 864.23300781 -386.24265625 863.46601562 -386.8828125 862.67578125 C-407.89406536 836.4352704 -419.60942258 803.50422471 -421 770 C-421.04125 769.09894531 -421.0825 768.19789063 -421.125 767.26953125 C-421.40577275 754.82778879 -419.58210568 742.37308805 -418.24841309 730.02719116 C-417.88122339 726.6242561 -417.51691104 723.22101385 -417.15222168 719.81781006 C-416.87942496 717.29098694 -416.60059503 714.76488027 -416.32128906 712.23876953 C-416.14888061 710.64357715 -415.97667194 709.04836315 -415.8046875 707.453125 C-415.72352692 706.73496613 -415.64236633 706.01680725 -415.55874634 705.27688599 C-414.70820903 697.27751112 -414.63011703 689.81091762 -416.6875 682 C-416.95977417 680.95755127 -416.95977417 680.95755127 -417.23754883 679.89404297 C-421.76369812 663.44615099 -433.21576461 654.50607254 -446.6171875 645.10546875 C-457.84878708 637.21837926 -468.66484775 628.07213795 -478 618 C-478 617.34 -478 616.68 -478 616 C-478.66 616 -479.32 616 -480 616 C-508.68212218 582.97390496 -520.33374457 539.24159266 -517.61108398 496.24365234 C-517.03964353 489.029525 -515.68864835 482.03352192 -514 475 C-513.71125 473.76636719 -513.4225 472.53273438 -513.125 471.26171875 C-507.04065425 446.84828143 -495.35289037 425.04564762 -479 406 C-478.27941406 405.15566406 -477.55882812 404.31132813 -476.81640625 403.44140625 C-465.98006136 391.05977154 -453.31464048 381.15761917 -439.84765625 371.8125 C-426.2127511 362.32734859 -418.93702326 351.88174435 -415.48046875 335.6875 C-414.42874251 327.61571487 -415.09994024 319.68560031 -416.05859375 311.63671875 C-416.1672023 310.68287796 -416.27581085 309.72903717 -416.38771057 308.74629211 C-416.73236189 305.72606024 -417.08444238 302.70675971 -417.4375 299.6875 C-422.78794561 253.47707517 -421.5967336 208.65118264 -394 169 C-393.40832031 168.1234375 -392.81664062 167.246875 -392.20703125 166.34375 C-387.19692502 159.15398931 -381.46779714 152.79322978 -375.41796875 146.48095703 C-374.16488282 145.17220716 -372.92514556 143.85070463 -371.6875 142.52734375 C-365.67754866 136.2632952 -358.95884126 131.14664302 -352 126 C-351.34 125.4946875 -350.68 124.989375 -350 124.46875 C-314.96824344 98.19493258 -270.32358422 94.81107378 -228.51220703 99.50341797 C-224.25379787 99.98046268 -219.99404806 100.44414595 -215.73361206 100.90270996 C-214.01622234 101.09020257 -212.29933685 101.28238262 -210.58303833 101.47961426 C-191.80887305 103.63581961 -174.60162661 103.88171866 -158.671875 92.30859375 C-151.4452455 86.35245234 -146.44658789 78.9970677 -141.10546875 71.3828125 C-133.21837926 60.15121292 -124.07213795 49.33515225 -114 40 C-113.34 40 -112.68 40 -112 40 C-112 39.34 -112 38.68 -112 38 C-109.52481184 35.76679951 -106.7134801 33.93246198 -104 32 C-103.29875 31.47277344 -102.5975 30.94554687 -101.875 30.40234375 C-72.50021924 8.83023913 -36.35550622 -1.77532196 0 0 Z " fill="#2196F2" transform="translate(647,129)"/>
<path d="M0 0 C0.79019531 0.58652344 1.58039063 1.17304688 2.39453125 1.77734375 C3.37873047 2.48697266 3.37873047 2.48697266 4.3828125 3.2109375 C13.84001322 10.61313673 20.70424753 22.91050653 22.39453125 34.77734375 C23.16754923 52.68259743 20.57809808 67.77528159 8.27501488 81.63473701 C3.4912692 86.75944627 -1.47474904 91.70157305 -6.46494401 96.62398016 C-9.07744646 99.20985101 -11.66647227 101.81906334 -14.25868225 104.42524719 C-19.32351923 109.51012049 -24.40924377 114.57357964 -29.50265221 119.62981594 C-35.44427731 125.52965053 -41.36468116 131.4505963 -47.28447147 137.37232553 C-57.85171502 147.94156595 -68.43808136 158.49144036 -79.03540039 169.03051758 C-89.29961616 179.23835206 -99.5496841 189.46012054 -109.78442383 199.69750977 C-110.41531966 200.32856542 -111.04621549 200.95962108 -111.69622938 201.60979963 C-112.32607564 202.23980731 -112.9559219 202.86981499 -113.6048544 203.51891381 C-125.28811176 215.20493556 -136.98450039 226.87773593 -148.6870198 238.54446634 C-152.81268337 242.6581046 -156.93447001 246.77560314 -161.05503273 250.89435005 C-166.07966993 255.91624914 -171.11185795 260.93044531 -176.1533945 265.93538059 C-178.72171709 268.48533096 -181.2869163 271.03821125 -183.84353638 273.59989929 C-186.62228453 276.38388817 -189.4164654 279.15205986 -192.2122345 281.91896057 C-193.00739922 282.7203197 -193.80256394 283.52167883 -194.62182456 284.34732157 C-209.70511551 299.17544815 -226.46191003 305.20940133 -247.26489258 305.14306641 C-269.95126134 304.72771171 -285.48059415 292.2083191 -300.90112305 276.7722168 C-301.88591153 275.79343055 -302.87110241 274.81504903 -303.85665894 273.83703613 C-306.50382603 271.20735642 -309.14464711 268.57139574 -311.7837255 265.93360114 C-313.4387216 264.28003622 -315.09513784 262.62790748 -316.75205421 260.97626686 C-322.54880991 255.19794898 -328.34044384 249.41455506 -334.12719727 243.6262207 C-339.49630279 238.25591306 -344.87647524 232.89687306 -350.26193494 227.54297036 C-354.90889363 222.92226071 -359.54800889 218.29377289 -364.18122417 213.65928298 C-366.9382804 210.90171999 -369.69826308 208.14726252 -372.46622276 205.40064049 C-375.06984276 202.81655114 -377.66346175 200.22280818 -380.250103 197.62172699 C-381.63874686 196.23003552 -383.03717869 194.84813141 -384.4360199 193.46669006 C-397.5342344 180.23843942 -403.92237397 166.09486585 -403.99047852 147.62524414 C-403.86123425 139.8559174 -402.28191982 133.67302227 -398.60546875 126.77734375 C-398.09757812 125.81441406 -397.5896875 124.85148438 -397.06640625 123.859375 C-389.50491208 110.86865634 -378.20061689 103.46529403 -364.25 98.609375 C-350.32841945 95.43113635 -335.84587201 97.55831547 -323.41796875 104.46484375 C-312.23507887 111.82435218 -303.03211114 122.21631079 -293.62890625 131.65625 C-292.20852287 133.07850247 -290.78791557 134.50053135 -289.36709595 135.92234802 C-285.6594534 139.6337771 -281.95482591 143.34820111 -278.25085449 147.06329346 C-274.45814312 150.86630279 -270.66253787 154.66642155 -266.8671875 158.46679688 C-259.4438067 165.9008467 -252.0236133 173.33806912 -244.60546875 180.77734375 C-239.63195348 176.60978096 -234.96357992 172.26953898 -230.39730835 167.66252136 C-229.70629583 166.969541 -229.01528331 166.27656065 -228.30333102 165.56258088 C-226.00370089 163.2552726 -223.7076915 160.94439519 -221.41162109 158.63354492 C-219.75707264 156.97216113 -218.1022707 155.31102974 -216.44723511 153.65013123 C-212.89001276 150.07960452 -209.33421197 146.50767019 -205.77939987 142.93474388 C-200.15048825 137.27792285 -194.51611828 131.62655588 -188.88052368 125.97639465 C-186.94807122 124.03881858 -185.01564404 122.10121728 -183.08321571 120.16361713 C-182.60035079 119.67946618 -182.11748587 119.19531522 -181.61998867 118.69649303 C-176.13241704 113.19420952 -170.64573357 107.69104094 -165.15966797 102.18725586 C-164.658632 101.68460515 -164.15759604 101.18195444 -163.64137717 100.6640719 C-155.53080688 92.52699284 -147.42588343 84.38430852 -139.32258718 76.2399865 C-130.98230169 67.85783919 -122.63426454 59.48346539 -114.27952921 51.11572057 C-109.59721193 46.42561182 -104.91889358 41.73162102 -100.24930954 37.02882957 C-95.85351272 32.60182705 -91.44835439 28.18435637 -87.03606033 23.77379799 C-85.42542015 22.16047704 -83.8181768 20.54375601 -82.2147522 18.92326355 C-59.56031691 -3.96165908 -30.70060484 -21.26118022 0 0 Z " fill="#FEFEFE" transform="translate(830.60546875,489.22265625)"/>
<path d="M0 0 C0.74088867 0.03577148 1.48177734 0.07154297 2.24511719 0.10839844 C42.89648257 2.34234832 79.33933795 19.41930059 108.1875 47.9375 C109.05375 48.78973145 109.05375 48.78973145 109.9375 49.65917969 C114 53.75380408 114 53.75380408 114 56 C114.66 56 115.32 56 116 56 C117.55859375 57.87890625 117.55859375 57.87890625 119.4375 60.5625 C120.14777344 61.56152344 120.85804688 62.56054688 121.58984375 63.58984375 C121.97640137 64.13753418 122.36295898 64.68522461 122.76123047 65.24951172 C140.24918653 90.22815437 140.24918653 90.22815437 167.56640625 102.15234375 C173.90011141 103.15283575 179.7659236 102.92802187 186.125 102.3125 C187.23447998 102.21654541 188.34395996 102.12059082 189.48706055 102.02172852 C198.65288862 101.20078296 207.79864358 100.17687771 216.93212891 99.05395508 C257.86707124 94.04198514 302.22031802 99.2422091 336 125 C336.95132813 125.62390625 337.90265625 126.2478125 338.8828125 126.890625 C354.00336838 137.12258011 372.40762024 153.06939914 380 170 C379.34 170.66 378.68 171.32 378 172 C377.56171875 171.36835938 377.1234375 170.73671875 376.671875 170.0859375 C351.3337569 134.34477092 315.47258863 110.48118849 272.15625 102.359375 C266.45649434 101.40941572 260.76802951 101.13620604 255 101 C254.01241699 100.9693042 254.01241699 100.9693042 253.00488281 100.93798828 C235.16356074 100.42618174 217.40754466 102.22092787 199.75 104.625 C192.03062828 105.65159295 184.41536977 106.31206164 176.625 106.375 C175.79967773 106.38869629 174.97435547 106.40239258 174.12402344 106.41650391 C160.07589435 106.31064224 146.97847477 99.63492791 137 90 C133.43010386 85.83040657 130.20433674 81.45313864 127 77 C125.14930772 74.45579491 123.29386518 71.91506822 121.4375 69.375 C120.97698242 68.74456787 120.51646484 68.11413574 120.04199219 67.46459961 C114.29480157 59.62891007 108.59665272 51.92937082 101.0546875 45.72265625 C99 44 99 44 96.9453125 41.99609375 C66.9135628 12.95154689 24.26885512 3.27472823 -16.09765625 3.72265625 C-33.17767539 4.01642862 -49.11025473 7.88283853 -65 14 C-65.66660645 14.25088379 -66.33321289 14.50176758 -67.02001953 14.76025391 C-84.28063578 21.36627366 -99.33888964 31.67821419 -113 44 C-113.81726563 44.68578125 -114.63453125 45.3715625 -115.4765625 46.078125 C-124.31254666 53.54771986 -130.85638756 62.72808297 -137.5625 72.0625 C-139.22036075 74.36632367 -140.87862277 76.66985016 -142.53857422 78.97216797 C-143.76874694 80.67911997 -144.9960365 82.38814929 -146.22265625 84.09765625 C-154.43520308 95.00837041 -166.65280669 102.95613957 -180 106 C-183.56724378 106.27364189 -187.11134433 106.27990513 -190.6875 106.25 C-192.09225586 106.26160156 -192.09225586 106.26160156 -193.52539062 106.2734375 C-194.42837891 106.27085937 -195.33136719 106.26828125 -196.26171875 106.265625 C-197.48314575 106.26224121 -197.48314575 106.26224121 -198.72924805 106.25878906 C-201.20986018 105.97608302 -202.85098386 105.24032627 -205 104 C-203.87464844 103.96261719 -202.74929688 103.92523438 -201.58984375 103.88671875 C-183.32930397 103.16045865 -167.54237773 100.95946401 -153.66796875 87.9453125 C-148.99553197 82.78716121 -145.09668791 77.07375477 -141.10546875 71.3828125 C-133.21837926 60.15121292 -124.07213795 49.33515225 -114 40 C-113.34 40 -112.68 40 -112 40 C-112 39.34 -112 38.68 -112 38 C-109.52481184 35.76679951 -106.7134801 33.93246198 -104 32 C-103.29875 31.47277344 -102.5975 30.94554687 -101.875 30.40234375 C-72.50021924 8.83023913 -36.35550622 -1.77532196 0 0 Z " fill="#0187F2" transform="translate(647,129)"/>
<path d="M0 0 C0.33 0 0.66 0 1 0 C1.0501123 1.05276123 1.10022461 2.10552246 1.15185547 3.19018555 C1.34257964 7.15847797 1.54235157 11.12627527 1.74462891 15.09399414 C1.830367 16.79960412 1.91376738 18.50533351 1.99462891 20.21118164 C2.42599408 29.27783843 3.00183058 38.16941045 4.52294922 47.13208008 C6.50474031 59.04615373 7.17860409 71.24875522 7.25 83.3125 C7.26377686 84.57320312 7.26377686 84.57320312 7.27783203 85.859375 C7.20367226 100.6913287 1.18098892 113.27164609 -9 124 C-14.80353383 129.29799952 -21.3375913 133.6886786 -27.74536133 138.21435547 C-33.38359584 142.21875287 -38.72971986 146.52230463 -44 151 C-44.77988281 151.64453125 -45.55976563 152.2890625 -46.36328125 152.953125 C-52.35895201 158.04789186 -57.20774139 163.77606484 -62 170 C-63.00353516 171.28003906 -63.00353516 171.28003906 -64.02734375 172.5859375 C-72.2395494 183.41629188 -78.72521503 195.49461091 -84 208 C-84.33386719 208.72316406 -84.66773438 209.44632813 -85.01171875 210.19140625 C-100.63233757 245.69281267 -98.54324673 289.42327286 -85.18701172 325.17626953 C-71.39031219 360.30790118 -47.46299565 384.21723229 -17.19921875 405.69921875 C-4.2175141 415.06386231 4.24878654 427.03500446 7 443 C7.21188533 446.72740131 7.18509014 450.45462156 7.1875 454.1875 C7.19974609 455.19748047 7.21199219 456.20746094 7.22460938 457.24804688 C7.22654297 458.21162109 7.22847656 459.17519531 7.23046875 460.16796875 C7.23457764 461.04735107 7.23868652 461.9267334 7.24291992 462.83276367 C7 465 7 465 5 467 C3.91597802 456.64371862 3.91597802 456.64371862 4.1875 451.8125 C4.33886278 437.8114433 -1.6598235 424.81917251 -11.01953125 414.73828125 C-16.02648378 409.90576219 -21.93682061 406.09003658 -27.6171875 402.10546875 C-38.84878708 394.21837926 -49.66484775 385.07213795 -59 375 C-59 374.34 -59 373.68 -59 373 C-59.66 373 -60.32 373 -61 373 C-89.68212218 339.97390496 -101.33374457 296.24159266 -98.61108398 253.24365234 C-98.03964353 246.029525 -96.68864835 239.03352192 -95 232 C-94.71125 230.76636719 -94.4225 229.53273438 -94.125 228.26171875 C-88.04065425 203.84828143 -76.35289037 182.04564762 -60 163 C-59.27941406 162.15566406 -58.55882812 161.31132813 -57.81640625 160.44140625 C-46.98006136 148.05977154 -34.31464048 138.15761917 -20.84765625 128.8125 C-7.2127511 119.32734859 0.06297674 108.88174435 3.51953125 92.6875 C4.57125749 84.61571487 3.90005976 76.68560031 2.94140625 68.63671875 C2.8327977 67.68287796 2.72418915 66.72903717 2.61228943 65.74629211 C2.26763811 62.72606024 1.91555762 59.70675971 1.5625 56.6875 C-3.48700122 13.07625458 -3.48700122 13.07625458 0 0 Z " fill="#0389F2" transform="translate(228,372)"/>
<path d="M0 0 C1.60360062 2.95182091 2.544893 5.73860869 3.33203125 9 C3.57018555 9.96325195 3.80833984 10.92650391 4.05371094 11.91894531 C4.30411133 12.93569336 4.55451172 13.95244141 4.8125 15 C6.94448469 23.34020068 9.1523131 31.26526367 13 39 C13.34015137 39.69512695 13.68030273 40.39025391 14.03076172 41.10644531 C19.45589145 52.11295585 25.40476225 62.35433685 33 72 C33.42893555 72.54849609 33.85787109 73.09699219 34.29980469 73.66210938 C44.77179018 86.90540607 56.92698356 97.7141162 71 107 C71.86915039 107.58177002 71.86915039 107.58177002 72.75585938 108.17529297 C88.39495796 118.52469644 105.87136121 124.58466083 124 129 C124.94101562 129.23460937 125.88203125 129.46921875 126.8515625 129.7109375 C150.64818068 135.05936308 177.35748979 132.00473666 201.1875 128.375 C208.8684365 127.23497623 216.42092307 126.68172255 224.1875 126.625 C225.10748779 126.61130371 226.02747559 126.59760742 226.9753418 126.58349609 C240.58582886 126.6748168 252.16635909 131.57011637 262.5625 140.125 C263.0877124 140.5569165 263.6129248 140.98883301 264.15405273 141.43383789 C266.67545304 143.59044696 267.93036641 144.79109922 269 148 C265.01420047 147.45400006 263.18823307 145.51741494 260.375 142.75 C249.21039728 132.49679342 235.91428985 129.49832753 221 130 C216.67058305 130.33928584 212.36132121 130.82066264 208.046875 131.3125 C205.54558321 131.5860316 203.04428079 131.85946607 200.54296875 132.1328125 C196.64832342 132.56495204 192.75396973 132.99955455 188.85986328 133.43652344 C185.06871338 133.85994932 181.2766286 134.2740929 177.484375 134.6875 C176.34119812 134.81874268 175.19802124 134.94998535 174.02020264 135.08520508 C163.13567572 136.26541922 152.20050029 136.55860966 141.3125 135.25 C140.56685791 135.16202148 139.82121582 135.07404297 139.05297852 134.98339844 C113.55881514 131.76241167 87.63642501 123.73575265 67 108 C66.05640625 107.38511719 65.1128125 106.77023437 64.140625 106.13671875 C60.74367782 103.82561165 57.66890045 101.30503176 54.5625 98.625 C53.41284815 97.63791864 52.26310947 96.6509384 51.11328125 95.6640625 C50.5713916 95.19774414 50.02950195 94.73142578 49.47119141 94.25097656 C48.30409226 93.2585743 47.1146872 92.29241416 45.91796875 91.3359375 C40.44615641 86.95336181 36.31424182 81.48875962 32 76 C31.37867188 75.23300781 30.75734375 74.46601562 30.1171875 73.67578125 C17.65141741 58.10754372 9.28175461 40.80145802 3 22 C2.63648438 20.92234375 2.27296875 19.8446875 1.8984375 18.734375 C-0.03063698 12.42431829 -0.34339066 6.57529519 0 0 Z " fill="#0287F2" transform="translate(230,918)"/>
<path d="M0 0 C1.14453125 1.49609375 1.14453125 1.49609375 2 4 C1.37875727 6.83953384 0.65868127 9.34354254 -0.3125 12.0625 C-0.72157593 13.24102539 -0.72157593 13.24102539 -1.13891602 14.44335938 C-5.81730734 27.49068644 -11.57444255 39.95042465 -20 51 C-20.93585938 52.42699219 -20.93585938 52.42699219 -21.890625 53.8828125 C-34.46457944 72.46432296 -52.32027757 89.2340342 -72 100 C-73.0828125 100.62390625 -74.165625 101.2478125 -75.28125 101.890625 C-111.16015542 122.20211549 -148.8436903 123.49998311 -188.8125 119 C-192.67421454 118.56821052 -196.53614433 118.13890464 -200.39884949 117.71606445 C-202.78691215 117.45440558 -205.17442186 117.18762962 -207.56123352 116.91479492 C-216.96508201 115.88034427 -225.85331163 115.23025722 -235.0625 117.6875 C-236.09818115 117.95977417 -236.09818115 117.95977417 -237.15478516 118.23754883 C-249.35146795 121.6159525 -258.32352976 129.02234532 -266 139 C-266.99 138.67 -267.98 138.34 -269 138 C-260.35452233 125.82004763 -249.28172848 117.2210963 -234.69140625 113.39453125 C-219.52620069 111.17147499 -203.86732557 113.588712 -188.78857422 115.48901367 C-141.163305 121.46455751 -96.3860759 115.77017913 -57.25 86.0625 C-41.87771917 74.06013275 -29.63096548 60.31964951 -19 44 C-18.02353516 42.51886719 -18.02353516 42.51886719 -17.02734375 41.0078125 C-9.2593088 28.51525515 -4.32774389 14.00822364 0 0 Z " fill="#0186F2" transform="translate(1046,932)"/>
<path d="M0 0 C1.06428223 0.11778809 2.12856445 0.23557617 3.22509766 0.35693359 C6.54731184 0.72660543 9.86750843 1.11091143 13.1875 1.5 C14.77473877 1.67752808 14.77473877 1.67752808 16.39404297 1.85864258 C17.37131348 1.97747803 18.34858398 2.09631348 19.35546875 2.21875 C20.22840576 2.32123047 21.10134277 2.42371094 22.00073242 2.52929688 C22.66049072 2.68462891 23.32024902 2.83996094 24 3 C24.33 3.66 24.66 4.32 25 5 C17.00877286 5.23894035 9.48011695 4.7402831 1.5859375 3.51171875 C-10.53389758 1.7821998 -22.78445965 1.76245232 -35 2 C-36.21042969 2.01675781 -37.42085937 2.03351563 -38.66796875 2.05078125 C-78.67107276 3.60473091 -115.71177405 23.4243767 -143 52 C-151.58900966 61.45980816 -158.64304825 71.94331175 -165 83 C-165.62519531 84.08152344 -166.25039062 85.16304688 -166.89453125 86.27734375 C-176.17088158 103.55271399 -180.95297407 122.75562571 -184 142 C-184.33 142 -184.66 142 -185 142 C-184.72112704 118.90424819 -177.92782054 97.82290176 -166 78 C-165.35546875 76.91460937 -164.7109375 75.82921875 -164.046875 74.7109375 C-152.56364087 55.85731493 -136.79113858 39.93017176 -119 27 C-118.34515625 26.49984375 -117.6903125 25.9996875 -117.015625 25.484375 C-83.75524978 0.45990221 -39.99516848 -4.59362578 0 0 Z " fill="#0188F2" transform="translate(414,228)"/>
<path d="M0 0 C0.33 0 0.66 0 1 0 C1.86923465 6.22219432 1.96833932 11.70092968 1.1875 17.91796875 C0.99729703 19.60220239 0.80719612 21.28644755 0.6171875 22.97070312 C0.31148617 25.572827 0.00157786 28.17439114 -0.31152344 30.77563477 C-2.57433802 49.80171231 -3.06580607 67.14498749 8.69140625 83.328125 C14.56902726 90.45948513 21.78345068 95.3587083 29.2890625 100.63671875 C40.58896706 108.61898617 51.9451419 117.46797225 61 128 C61 128.66 61 129.32 61 130 C61.66 130 62.32 130 63 130 C64.69921875 132.0546875 64.69921875 132.0546875 66.6875 134.875 C67.40292969 135.88949219 68.11835937 136.90398437 68.85546875 137.94921875 C69.56316406 138.95597656 70.27085938 139.96273437 71 141 C71.59425781 141.79019531 72.18851563 142.58039063 72.80078125 143.39453125 C78.24564588 150.74196927 82.09234817 158.7716751 86 167 C86.48726562 168.00675781 86.97453125 169.01351562 87.4765625 170.05078125 C91.77746752 179.16711673 96.47179914 189.80166025 97 200 C96.34 200.66 95.68 201.32 95 202 C94.75991211 201.21165771 94.51982422 200.42331543 94.27246094 199.61108398 C87.18258229 176.62900559 79.11832216 154.35977634 63 136 C62.55269531 135.48937012 62.10539062 134.97874023 61.64453125 134.45263672 C58.50578448 130.89297258 55.27213002 127.43719296 52 124 C51.29617188 123.23171875 50.59234375 122.4634375 49.8671875 121.671875 C42.17155351 113.53732652 32.91168138 107.23098086 23.83984375 100.73828125 C10.21349322 90.98327082 -0.99094195 80.30305592 -4.5859375 63.21484375 C-7.26329165 42.42746201 -3.29712765 20.49806059 0 0 Z " fill="#0388F2" transform="translate(1050,405)"/>
<path d="M0 0 C0.33 0 0.66 0 1 0 C0.5676351 6.26097641 -1.57115033 10.58263569 -4.75 15.9375 C-5.23734619 16.76580322 -5.72469238 17.59410645 -6.22680664 18.44750977 C-18.58882141 38.90088284 -35.53787324 54.6454093 -54.796875 68.44921875 C-71.04032554 80.11890145 -82.00935039 89.99859101 -85.47412109 110.55859375 C-86.48750143 117.81926181 -85.64835409 124.9406346 -84.875 132.1875 C-84.7248491 133.75713819 -84.57668877 135.32696795 -84.43041992 136.89697266 C-83.98478176 141.60138204 -83.49832848 146.30091322 -83 151 C-82.92465027 151.71347595 -82.84930054 152.4269519 -82.77166748 153.16204834 C-82.55553878 155.20576655 -82.33836507 157.24937174 -82.12109375 159.29296875 C-81.91734131 161.21943237 -81.91734131 161.21943237 -81.70947266 163.18481445 C-81.45472256 165.55292495 -81.19086901 167.92008397 -80.91552734 170.28588867 C-78.51044081 191.83990713 -78.51044081 191.83990713 -82 201 C-82.33 201 -82.66 201 -83 201 C-83.01401855 199.94147827 -83.01401855 199.94147827 -83.02832031 198.86157227 C-83.31788309 181.15707949 -84.74209225 163.91185834 -87.0625 146.37109375 C-90.09786906 123.23106126 -91.85957748 102.42653023 -77.328125 82.734375 C-72.05435483 76.2886559 -65.57447855 71.884242 -58.76953125 67.22314453 C-51.02517208 61.87004858 -43.79729128 56.12364951 -36.9609375 49.65234375 C-35 48 -35 48 -33 48 C-32.67 47.01 -32.34 46.02 -32 45 C-30.8701053 43.83586607 -29.73395762 42.67727311 -28.5703125 41.546875 C-16.3993016 29.55752098 -8.10187117 14.89256996 0 0 Z " fill="#028AF2" transform="translate(1134,706)"/>
<path d="M0 0 C0.66 0 1.32 0 2 0 C3.18579102 1.38598633 3.18579102 1.38598633 4.50390625 3.33203125 C4.99270264 4.04286865 5.48149902 4.75370605 5.98510742 5.48608398 C6.50564697 6.25380127 7.02618652 7.02151855 7.5625 7.8125 C12.42046227 14.83279024 17.42401435 21.52696364 23 28 C23.71542969 28.84949219 24.43085937 29.69898438 25.16796875 30.57421875 C30.57044871 36.81814692 36.44227842 41.99791093 43 47 C44.01449219 47.79148437 45.02898438 48.58296875 46.07421875 49.3984375 C59.41316731 59.53627954 75.01991116 67.94372632 91 73 C91.63921387 73.20818359 92.27842773 73.41636719 92.93701172 73.63085938 C104.77157638 77.40155459 116.56030162 78.95472105 128.92016602 80.01220703 C130.08346436 80.1151709 131.2467627 80.21813477 132.4453125 80.32421875 C133.49219238 80.40760498 134.53907227 80.49099121 135.61767578 80.5769043 C136.79692627 80.78633667 136.79692627 80.78633667 138 81 C138.33 81.66 138.66 82.32 139 83 C96.68746307 84.33618538 59.16444556 66.31332522 28.14453125 38.43359375 C16.95194402 27.63248016 8.09043917 14.5543009 -1 2 C-0.67 1.34 -0.34 0.68 0 0 Z " fill="#0185F2" transform="translate(499,1067)"/>
<path d="M0 0 C0.66 0 1.32 0 2 0 C1.47084432 4.31791036 -1.23894359 7.22983604 -3.875 10.5 C-4.60614014 11.41833618 -4.60614014 11.41833618 -5.35205078 12.35522461 C-10.29454989 18.49175163 -15.55344076 24.30741238 -21 30 C-22.33417969 31.40572266 -22.33417969 31.40572266 -23.6953125 32.83984375 C-26 35 -26 35 -28 35 C-28 35.66 -28 36.32 -28 37 C-30.47518816 39.23320049 -33.2865199 41.06753802 -36 43 C-36.70125 43.52722656 -37.4025 44.05445313 -38.125 44.59765625 C-61.95727607 62.09948399 -92.69183039 74.3780588 -122.5 74.0625 C-123.32242188 74.05798828 -124.14484375 74.05347656 -124.9921875 74.04882812 C-126.99482396 74.03718489 -128.99742227 74.01925556 -131 74 C-130.505 73.01 -130.505 73.01 -130 72 C-127.77294922 71.59277344 -127.77294922 71.59277344 -124.8046875 71.359375 C-123.70761475 71.26180908 -122.61054199 71.16424316 -121.48022461 71.0637207 C-119.69563843 70.90842896 -119.69563843 70.90842896 -117.875 70.75 C-83.98373809 67.34764117 -48.9768237 54.06667932 -25 29 C-24.34 29 -23.68 29 -23 29 C-22.505 27.515 -22.505 27.515 -22 26 C-20.89628148 24.86179027 -19.78517751 23.73010653 -18.64453125 22.62890625 C-12.24614052 16.29130783 -6.71723564 9.4764528 -1.62890625 2.0546875 C-0.82259766 1.03761719 -0.82259766 1.03761719 0 0 Z " fill="#0188F2" transform="translate(773,1076)"/>
<path d="M0 0 C10.09813593 15.1472039 5.74071492 44.14850074 2.34863281 61.29199219 C-1.8898777 80.33481655 -1.8898777 80.33481655 -5 85 C-5.66 85 -6.32 85 -7 85 C-6.37713159 82.31199023 -5.75176793 79.6246008 -5.125 76.9375 C-4.95097656 76.18533203 -4.77695313 75.43316406 -4.59765625 74.65820312 C-3.78721349 71.1913091 -2.93347958 67.77158062 -1.9375 64.3515625 C3.71346675 44.14935636 2.03136668 20.67641081 0 0 Z " fill="#058EF3" transform="translate(1146,610)"/>
<path d="M0 0 C5.08402638 1.69467546 6.60255645 6.42013025 9 11 C15.70701774 24.70943967 21.25297489 38.61903194 23.9375 53.6875 C24.14886597 54.83798828 24.14886597 54.83798828 24.36450195 56.01171875 C25.02259398 60.12078113 25.07100047 62.41387565 23 66 C22.8141333 65.15928955 22.6282666 64.3185791 22.43676758 63.45239258 C21.72708963 60.26529344 21.00838632 57.08048916 20.28393555 53.89672852 C19.97508819 52.53130651 19.66962165 51.16511436 19.36791992 49.7980957 C16.62870278 37.40553095 12.71038544 25.80173465 6.875 14.5 C6.54113281 13.83742188 6.20726562 13.17484375 5.86328125 12.4921875 C4.41867466 9.64829531 2.92450704 6.87677382 1.2578125 4.15625 C0 2 0 2 0 0 Z " fill="#038CF2" transform="translate(1027,302)"/>
<path d="M0 0 C-0.99 0.33 -1.98 0.66 -3 1 C-3 1.66 -3 2.32 -3 3 C-13.04273512 5.2054634 -22.78451249 5.20430975 -33 5 C-32.67 4.34 -32.34 3.68 -32 3 C-29.48730469 2.49755859 -29.48730469 2.49755859 -26.171875 2.1484375 C-24.97949219 2.01953125 -23.78710938 1.890625 -22.55859375 1.7578125 C-21.30175781 1.63148437 -20.04492188 1.50515625 -18.75 1.375 C-17.50863281 1.2409375 -16.26726563 1.106875 -14.98828125 0.96875 C-4.98229354 -0.08677938 -4.98229354 -0.08677938 0 0 Z " fill="#007BF1" transform="translate(675,1145)"/>
<path d="M0 0 C1.0706721 3.3420475 0.93532374 5.93245663 0.4765625 9.39453125 C0.3425 10.43287109 0.2084375 11.47121094 0.0703125 12.54101562 C-0.07664063 13.62060547 -0.22359375 14.70019531 -0.375 15.8125 C-0.51421875 16.88048828 -0.6534375 17.94847656 -0.796875 19.04882812 C-1.49467189 24.37117518 -2.2270792 29.68806389 -3 35 C-3.33 35 -3.66 35 -4 35 C-4.95309236 28.3950033 -4.88772812 22.54445058 -4.0625 15.9375 C-3.91264648 14.6390918 -3.91264648 14.6390918 -3.75976562 13.31445312 C-3.51543786 11.20858045 -3.25900134 9.10411836 -3 7 C-2.34 7 -1.68 7 -1 7 C-1.020625 6.030625 -1.04125 5.06125 -1.0625 4.0625 C-1 1 -1 1 0 0 Z " fill="#0285F1" transform="translate(233,840)"/>
<path d="M0 0 C0.33 0 0.66 0 1 0 C1 1.65 1 3.3 1 5 C1.66 5 2.32 5 3 5 C3.20483028 12.99976044 3.13480153 20.26134446 1 28 C0.67 28 0.34 28 0 28 C0 18.76 0 9.52 0 0 Z " fill="#0188F2" transform="translate(1051,374)"/>
<path d="M0 0 C0.33 0 0.66 0 1 0 C1 9.9 1 19.8 1 30 C0.67 30 0.34 30 0 30 C-2.74396351 19.71013683 -2.74396351 10.28986317 0 0 Z " fill="#0088F3" transform="translate(228,372)"/>
<path d="M0 0 C0.33 0 0.66 0 1 0 C1 9.24 1 18.48 1 28 C0.67 28 0.34 28 0 28 C-2.25072695 18.91670911 -3.92665233 8.83496775 0 0 Z " fill="#0088F3" transform="translate(228,881)"/>
<path d="M0 0 C1.15048828 -0.03867188 1.15048828 -0.03867188 2.32421875 -0.078125 C4.84225938 0.33742591 5.71252861 1.31987579 7.3125 3.25 C-1.76198253 3.36157151 -10.65028689 3.19242818 -19.6875 2.25 C-19.6875 1.92 -19.6875 1.59 -19.6875 1.25 C-13.13414814 0.72119927 -6.57303459 0.19475658 0 0 Z " fill="#0094F6" transform="translate(893.6875,1050.75)"/>
<path d="M0 0 C-2 2 -2 2 -4.87109375 2.23046875 C-12.2959972 2.14101208 -19.62015575 1.84341077 -27 1 C-27 0.67 -27 0.34 -27 0 C-6.78125 -1.75 -6.78125 -1.75 0 0 Z " fill="#0095F5" transform="translate(396,1052)"/>
<path d="M0 0 C0.33 0 0.66 0 1 0 C1.19777236 3.3953164 1.38139685 6.79125692 1.5625 10.1875 C1.61857422 11.14720703 1.67464844 12.10691406 1.73242188 13.09570312 C1.78076172 14.02705078 1.82910156 14.95839844 1.87890625 15.91796875 C1.94960327 17.19837036 1.94960327 17.19837036 2.02172852 18.50463867 C1.99892429 21.12353758 1.59213206 23.45403152 1 26 C0.67 26 0.34 26 0 26 C-4.10976948 7.02901051 -4.10976948 7.02901051 0 0 Z " fill="#0F92F3" transform="translate(229,897)"/>
<path d="M0 0 C0.33 0 0.66 0 1 0 C2.39049107 9.08785235 3.30892527 17.78372955 3 27 C2.67 27 2.34 27 2 27 C1.855625 25.865625 1.71125 24.73125 1.5625 23.5625 C1.38828522 20.19222799 1.38828522 20.19222799 0 19 C-0.91551364 12.55071504 -1.3079748 6.39454346 0 0 Z " fill="#0C90F5" transform="translate(1050,859)"/>
<path d="M0 0 C0.33 0 0.66 0 1 0 C2.52973684 8.5665263 1.26437893 16.48372872 0 25 C-0.66 24.67 -1.32 24.34 -2 24 C-2.29599372 15.7943963 -1.43794854 8.07562173 0 0 Z " fill="#0382F1" transform="translate(1050,405)"/>
<path d="M0 0 C0.33 0 0.66 0 1 0 C2.27567351 6.76106962 1.48725585 12.31349436 0 19 C-0.66 19 -1.32 19 -2 19 C-2.33 19.66 -2.66 20.32 -3 21 C-2.41523944 13.90593106 -1.36766005 6.98436101 0 0 Z " fill="#0286F2" transform="translate(1050,910)"/>
<path d="M0 0 C0.33 0 0.66 0 1 0 C1.144375 0.7425 1.28875 1.485 1.4375 2.25 C1.92445678 4.87514925 1.92445678 4.87514925 2.59375 6.875 C3.08715388 9.45588183 2.69721435 11.21114262 2.0625 13.75 C1.77052734 14.94882812 1.77052734 14.94882812 1.47265625 16.171875 C1.23869141 17.07679688 1.23869141 17.07679688 1 18 C0.01 18 -0.98 18 -2 18 C-1.34 12.06 -0.68 6.12 0 0 Z " fill="#0992F3" transform="translate(1146,659)"/>
<path d="M0 0 C3.67654425 5.51481637 4.24273057 9.82705591 3.625 16.375 C3.51414062 17.62023437 3.40328125 18.86546875 3.2890625 20.1484375 C3.19367188 21.08945312 3.09828125 22.03046875 3 23 C2.67 23 2.34 23 2 23 C1.66114962 20.47980028 1.32879665 17.95901484 1 15.4375 C0.90460938 14.73302734 0.80921875 14.02855469 0.7109375 13.30273438 C0.13333583 8.82632145 -0.09489383 4.51338762 0 0 Z " fill="#0078F2" transform="translate(1146,610)"/>
<path d="M0 0 C0.33 0 0.66 0 1 0 C1 8.25 1 16.5 1 25 C-2 22 -2 22 -2.36328125 19.6875 C-2.23597025 12.9498102 -1.42684593 6.58642273 0 0 Z " fill="#1196F4" transform="translate(229,357)"/>
<path d="M0 0 C0.8971875 0.5259375 0.8971875 0.5259375 1.8125 1.0625 C-6.9659452 3.10654545 -15.22648756 3.28017642 -24.1875 3.0625 C-24.1875 2.7325 -24.1875 2.4025 -24.1875 2.0625 C-23.62764404 2.00715088 -23.06778809 1.95180176 -22.4909668 1.89477539 C-19.95194195 1.6417418 -17.413481 1.3834302 -14.875 1.125 C-13.99392578 1.03798828 -13.11285156 0.95097656 -12.20507812 0.86132812 C-10.93374023 0.73081055 -10.93374023 0.73081055 -9.63671875 0.59765625 C-8.46629028 0.47982788 -8.46629028 0.47982788 -7.2722168 0.35961914 C-1.18515643 -0.50792419 -1.18515643 -0.50792419 0 0 Z " fill="#0079EE" transform="translate(844.1875,231.9375)"/>
<path d="M0 0 C-3.68486768 2.45657845 -5.65013547 2.07631341 -10 2 C-10.58394531 2.17273438 -11.16789063 2.34546875 -11.76953125 2.5234375 C-14.9970761 3.21303552 -17.97073102 2.83577242 -21.25 2.5625 C-22.51328125 2.46066406 -23.7765625 2.35882813 -25.078125 2.25390625 C-26.52445313 2.12822266 -26.52445313 2.12822266 -28 2 C-28 1.67 -28 1.34 -28 1 C-18.62895894 0.11504503 -9.40228594 -0.1170409 0 0 Z " fill="#009DF9" transform="translate(901,226)"/>
<path d="M0 0 C0.33 0 0.66 0 1 0 C1.99250545 5.70690634 2.10477512 11.21408489 2 17 C1.01 17.33 0.02 17.66 -1 18 C-1.18451025 5.33029613 -1.18451025 5.33029613 0 0 Z " fill="#1090F4" transform="translate(228,868)"/>
<path d="M0 0 C0 0.33 0 0.66 0 1 C-1.83072917 1.45768229 -3.66145833 1.91536458 -5.4921875 2.37304688 C-6.23726562 2.55931641 -6.98234375 2.74558594 -7.75 2.9375 C-10.91357422 3.72839355 -10.91357422 3.72839355 -14.07714844 4.51928711 C-15.02895996 4.75723999 -15.02895996 4.75723999 -16 5 C-17.11036621 5.27759155 -17.11036621 5.27759155 -18.24316406 5.56079102 C-18.82291992 5.70572998 -19.40267578 5.85066895 -20 6 C-19 3 -19 3 -17.4375 1.875 C-11.82347117 -0.1402924 -5.89396609 -0.12279096 0 0 Z " fill="#0096F4" transform="translate(819,1047)"/>
<path d="M0 0 C0.33 1.32 0.66 2.64 1 4 C-3.39042858 7.42453429 -6.2902045 9.58221009 -12 10 C-8.40945767 6.11024581 -4.26101118 3.10267805 0 0 Z " fill="#0193F4" transform="translate(212,497)"/>
<path d="M0 0 C0.33 0 0.66 0 1 0 C1.22307542 2.2277397 1.42788178 4.45731364 1.625 6.6875 C1.74101563 7.92886719 1.85703125 9.17023437 1.9765625 10.44921875 C1.99953004 13.92880169 1.54051631 15.92484721 0 19 C-0.33 19 -0.66 19 -1 19 C-1.12086218 12.56744599 -0.82351864 6.38226945 0 0 Z " fill="#0081F1" transform="translate(1148,646)"/>
<path d="M0 0 C0.33 0 0.66 0 1 0 C1.05790353 3.29159316 1.09356261 6.58305603 1.125 9.875 C1.15013672 11.28072266 1.15013672 11.28072266 1.17578125 12.71484375 C1.18222656 13.61074219 1.18867188 14.50664063 1.1953125 15.4296875 C1.20578613 16.25710449 1.21625977 17.08452148 1.22705078 17.93701172 C1 20 1 20 -1 22 C-2.125 15.375 -2.125 15.375 -1 12 C-0.77674186 9.94106379 -0.59294241 7.87766347 -0.4375 5.8125 C-0.35371094 4.72582031 -0.26992187 3.63914062 -0.18359375 2.51953125 C-0.12300781 1.68808594 -0.06242188 0.85664062 0 0 Z " fill="#017BEF" transform="translate(234,817)"/>
<path d="M0 0 C2.02558881 3.34939881 2.21738987 5.86962551 2.125 9.75 C2.10695313 10.73484375 2.08890625 11.7196875 2.0703125 12.734375 C2.04710937 13.48203125 2.02390625 14.2296875 2 15 C1.01 14.34 0.02 13.68 -1 13 C-1.328125 10.9765625 -1.328125 10.9765625 -1.25 8.625 C-1.23453125 7.85414063 -1.2190625 7.08328125 -1.203125 6.2890625 C-1.00838739 4.0945194 -0.59915017 2.11635304 0 0 Z " fill="#0E92F4" transform="translate(1051,364)"/>
<path d="M0 0 C1.485 0.99 1.485 0.99 3 2 C3.34889626 7.14621987 2.84553115 11.92681313 2 17 C1.67 17 1.34 17 1 17 C0.1679418 11.27959989 -0.12036664 5.77759884 0 0 Z " fill="#1391F6" transform="translate(1050,396)"/>
<path d="M0 0 C0.98484375 0.11988281 1.9696875 0.23976563 2.984375 0.36328125 C3.73203125 0.47027344 4.4796875 0.57726563 5.25 0.6875 C3.93 1.0175 2.61 1.3475 1.25 1.6875 C1.25 2.3475 1.25 3.0075 1.25 3.6875 C-2.38 3.3575 -6.01 3.0275 -9.75 2.6875 C-5.40352612 -0.57235541 -5.0019968 -0.65502339 0 0 Z " fill="#0592F4" transform="translate(621.75,1146.3125)"/>
<path d="M0 0 C1.48046875 1.25390625 1.48046875 1.25390625 3 3 C3.36302306 7.57409061 3.62404613 11.06393081 1 15 C-0.03590199 9.94997778 -0.10251672 5.12583611 0 0 Z " fill="#1191F6" transform="translate(1050,901)"/>
<path d="M0 0 C0.99 0.495 0.99 0.495 2 1 C3.08562787 5.93467213 2.90896604 10.05118487 2 15 C1.67 15 1.34 15 1 15 C-0.32286246 10.03926578 -0.08893197 5.08888488 0 0 Z " fill="#0073F0" transform="translate(1048,851)"/>
<path d="M0 0 C0.69738281 0.06123047 1.39476562 0.12246094 2.11328125 0.18554688 C3.82689681 0.33812908 5.5386995 0.51083589 7.25 0.6875 C7.25 1.0175 7.25 1.3475 7.25 1.6875 C-2.155 2.1825 -2.155 2.1825 -11.75 2.6875 C-7.24952377 -0.68785717 -5.22641448 -0.55820873 0 0 Z " fill="#0294F6" transform="translate(445.75,231.3125)"/>
<path d="M0 0 C1.77049689 -0.05410687 3.54146849 -0.09284119 5.3125 -0.125 C6.29863281 -0.14820313 7.28476562 -0.17140625 8.30078125 -0.1953125 C11 0 11 0 14 2 C8.58264203 2.93402724 5.19548425 3.20808081 0 1 C0 0.67 0 0.34 0 0 Z " fill="#0073EF" transform="translate(842,1047)"/>
<path d="M0 0 C0.66 0 1.32 0 2 0 C3.42258812 3.82320557 4.24042276 6.91281305 4 11 C3.34 11 2.68 11 2 11 C0.80712589 7.12315913 0 4.08378077 0 0 Z " fill="#037EF0" transform="translate(133,672)"/>
<path d="M0 0 C-0.99 1.485 -0.99 1.485 -2 3 C-6.29 2.67 -10.58 2.34 -15 2 C-15 1.67 -15 1.34 -15 1 C-9.91913204 0.15318867 -5.15171623 -0.09038099 0 0 Z " fill="#0390F5" transform="translate(864,1048)"/>
<path d="M0 0 C-0.33 0.99 -0.66 1.98 -1 3 C-7.93 2.505 -7.93 2.505 -15 2 C-15 1.67 -15 1.34 -15 1 C-13.43784452 0.83013455 -11.8752548 0.66426036 -10.3125 0.5 C-9.44238281 0.4071875 -8.57226562 0.314375 -7.67578125 0.21875 C-5.10276661 0.00840136 -2.58015636 -0.03719144 0 0 Z " fill="#0092F7" transform="translate(844,1046)"/>
<path d="M0 0 C2.22825644 2.22825644 2.69239369 3.65761628 3.625 6.625 C4.01558594 7.85089844 4.01558594 7.85089844 4.4140625 9.1015625 C4.60742188 9.72804688 4.80078125 10.35453125 5 11 C4.34 11.66 3.68 12.32 3 13 C2.49487756 11.39743892 1.99608373 9.79288208 1.5 8.1875 C1.2215625 7.29417969 0.943125 6.40085937 0.65625 5.48046875 C0 3 0 3 0 0 Z " fill="#007AF0" transform="translate(1142,594)"/>
<path d="M0 0 C4.71403788 0.47939368 8.66579301 0.96834048 13 3 C10.11799341 3.96066886 8.85494009 4.07718954 5.9375 3.75 C5.24527344 3.68296875 4.55304687 3.6159375 3.83984375 3.546875 C2 3 2 3 0 0 Z " fill="#0097F3" transform="translate(681,135)"/>
<path d="M0 0 C5.45769811 -0.11138159 10.61509359 0.08342019 16 1 C16 1.33 16 1.66 16 2 C12.7 2.33 9.4 2.66 6 3 C6 2.34 6 1.68 6 1 C4.02 1 2.04 1 0 1 C0 0.67 0 0.34 0 0 Z " fill="#028FF5" transform="translate(433,1046)"/>
<path d="M0 0 C0.66 0.33 1.32 0.66 2 1 C1.34 2.65 0.68 4.3 0 6 C-0.66 6 -1.32 6 -2 6 C-3.37310707 7.29233607 -4.71034824 8.62437146 -6 10 C-4.6302836 6.00499382 -2.74277578 3.19990508 0 0 Z " fill="#049AF4" transform="translate(509,196)"/>
<path d="M0 0 C6.875 3.75 6.875 3.75 8 6 C7.01 6.33 6.02 6.66 5 7 C3.29115995 5.37660195 1.62553283 3.70680947 0 2 C0 1.34 0 0.68 0 0 Z " fill="#0194F4" transform="translate(726,154)"/>
<path d="M0 0 C3.3 0.33 6.6 0.66 10 1 C8 3 8 3 5.8359375 3.1953125 C4.61777344 3.16050781 4.61777344 3.16050781 3.375 3.125 C2.55773437 3.10695312 1.74046875 3.08890625 0.8984375 3.0703125 C0.27195312 3.04710937 -0.35453125 3.02390625 -1 3 C-0.67 2.01 -0.34 1.02 0 0 Z " fill="#0290F4" transform="translate(658,130)"/>
<path d="M0 0 C-0.33 0.99 -0.66 1.98 -1 3 C-2.65 3.33 -4.3 3.66 -6 4 C-6 3.34 -6 2.68 -6 2 C-7.65 2 -9.3 2 -11 2 C-11 1.67 -11 1.34 -11 1 C-7.27569643 0.30710631 -3.78916254 -0.11144596 0 0 Z " fill="#078DF2" transform="translate(664,1146)"/>
<path d="M0 0 C-0.33 0.99 -0.66 1.98 -1 3 C-4.96 2.67 -8.92 2.34 -13 2 C-13 1.67 -13 1.34 -13 1 C-8.62426048 0.40667939 -4.42471556 -0.13827236 0 0 Z " fill="#0093F6" transform="translate(870,228)"/>
<path d="M0 0 C3.39914975 1.13304992 4.05254451 2.12518475 6 5 C5.34 6.32 4.68 7.64 4 9 C0 2.25 0 2.25 0 0 Z " fill="#0185F0" transform="translate(1027,302)"/>
<path d="M0 0 C0.33 0 0.66 0 1 0 C2.12029814 5.48946087 1.79217969 8.83430559 0 14 C-0.33 14 -0.66 14 -1 14 C-1.027193 12.41676312 -1.04648306 10.83338938 -1.0625 9.25 C-1.07410156 8.36828125 -1.08570313 7.4865625 -1.09765625 6.578125 C-1.00826198 4.2181162 -0.66912821 2.25501476 0 0 Z " fill="#1096F5" transform="translate(232,833)"/>
<path d="M0 0 C0.33 0 0.66 0 1 0 C1.36923077 5.53846154 1.36923077 5.53846154 -0.5 7.875 C-1.2425 8.431875 -1.2425 8.431875 -2 9 C-2.33 8.34 -2.66 7.68 -3 7 C-2.06421005 4.64018187 -1.06652192 2.30368736 0 0 Z " fill="#0181F1" transform="translate(1138,696)"/>
<path d="M0 0 C2.56616632 3.84924948 2.55097676 6.4349304 3 11 C1 8 1 8 1 6 C0.34 6 -0.32 6 -1 6 C-0.67 4.02 -0.34 2.04 0 0 Z " fill="#069BF6" transform="translate(1142,588)"/>
<path d="M0 0 C1.98 0 3.96 0 6 0 C6.33 0.99 6.66 1.98 7 3 C4.36 3 1.72 3 -1 3 C-0.67 2.01 -0.34 1.02 0 0 Z " fill="#00BAF7" transform="translate(637,1148)"/>
<path d="M0 0 C0.598125 0.350625 1.19625 0.70125 1.8125 1.0625 C-0.8275 2.0525 -3.4675 3.0425 -6.1875 4.0625 C-5.8575 2.7425 -5.5275 1.4225 -5.1875 0.0625 C-2.1875 -0.9375 -2.1875 -0.9375 0 0 Z " fill="#009EF4" transform="translate(705.1875,1135.9375)"/>
<path d="M0 0 C3.96 0.33 7.92 0.66 12 1 C12 1.33 12 1.66 12 2 C8.37 2.33 4.74 2.66 1 3 C0.67 2.01 0.34 1.02 0 0 Z " fill="#0193F5" transform="translate(420,1048)"/>
<path d="M0 0 C2.0625 1.75 2.0625 1.75 4 4 C3.75 6.25 3.75 6.25 3 8 C0.9375 5.6875 0.9375 5.6875 -1 3 C-0.67 2.01 -0.34 1.02 0 0 Z " fill="#0484F3" transform="translate(159,730)"/>
<path d="M0 0 C2.39763185 2.39763185 2.34280586 3.33273498 2.625 6.625 C2.69976563 7.44226563 2.77453125 8.25953125 2.8515625 9.1015625 C2.90054687 9.72804688 2.94953125 10.35453125 3 11 C1 8 1 8 1 5 C0.34 5 -0.32 5 -1 5 C-0.67 3.35 -0.34 1.7 0 0 Z " fill="#0A94F6" transform="translate(1146,605)"/>
<path d="M0 0 C2.62187494 1.04874998 3.79371361 1.64931313 5.25 4.125 C5.4975 4.74375 5.745 5.3625 6 6 C5.34 6.66 4.68 7.32 4 8 C0 2.25 0 2.25 0 0 Z " fill="#0280F0" transform="translate(1021,293)"/>
<path d="M0 0 C0.99 0.33 1.98 0.66 3 1 C3 2.98 3 4.96 3 7 C2.01 7.495 2.01 7.495 1 8 C0.67 5.36 0.34 2.72 0 0 Z " fill="#00A0F5" transform="translate(1045,446)"/>
<path d="M0 0 C0.93065133 2.60582371 1.14917407 3.64198224 0.0625 6.25 C-0.4634375 7.11625 -0.4634375 7.11625 -1 8 C-1.99 7.67 -2.98 7.34 -4 7 C-2.68 4.69 -1.36 2.38 0 0 Z " fill="#049AF3" transform="translate(247,308)"/>
<path d="M0 0 C1.11375 0.1546875 1.11375 0.1546875 2.25 0.3125 C-2.89285714 4.74107143 -2.89285714 4.74107143 -6.75 5.3125 C-3.42692308 0.38942308 -3.42692308 0.38942308 0 0 Z " fill="#007EF0" transform="translate(308.75,247.6875)"/>
<path d="" fill="#00FFFF" transform="translate(0,0)"/>
<path d="" fill="#00FFFF" transform="translate(0,0)"/>
</svg>
