<?xml version="1.0" encoding="UTF-8"?>
<svg version="1.1" xmlns="http://www.w3.org/2000/svg" width="2500" height="2500">
<path d="M0 0 C2.89003251 0.00545162 5.7800568 0.00781106 8.67009354 0.00987244 C37.54495257 0.04193107 66.27377895 0.57849353 95.05574417 3.09324646 C97.65363587 3.31801879 100.25227503 3.53048093 102.8514595 3.73973083 C192.37978364 11.01635583 281.03390229 29.75710821 493.65175247 109.31785583 C494.64884232 109.78481873 495.64593216 110.25178162 496.67323685 110.7328949 C522.14868451 122.68957108 547.31529604 135.43726879 571.6537056 149.5766449 C574.3874726 151.16436691 577.1267311 152.7422582 579.86731339 154.31817627 C594.03454461 162.47486666 607.92555638 170.92008366 621.55409622 179.95848083 C625.99084644 182.90035577 630.48904252 185.72277655 635.02675247 188.50535583 C642.75886163 193.27608492 650.13995726 198.4996101 657.51942825 203.79441833 C659.61686668 205.29293171 661.72378762 206.77682006 663.83534622 208.25535583 C679.04628829 218.90816071 694.01158806 229.8922821 708.65175247 241.31785583 C709.22232376 241.76226013 709.79289505 242.20666443 710.38075638 242.66453552 C717.329025 248.07990278 724.22337922 253.55190349 731.02284622 259.15379333 C732.75903406 260.58298808 734.50113887 262.00502859 736.24940872 263.41941833 C742.90299391 268.80892033 749.38245531 274.37919584 755.83534622 280.00535583 C758.2494251 282.10784231 760.67644076 284.19243793 763.12440872 286.25535583 C771.80022036 293.57603855 780.06752687 301.27242263 788.28847122 309.09812927 C790.46061585 311.13832958 792.65974009 313.14592891 794.8650856 315.15007019 C803.81402485 323.31097876 812.35846591 331.87327666 820.91054153 340.4462738 C823.53928656 343.08041566 826.17338425 345.70912088 828.80800247 348.33738708 C830.50363596 350.03368086 832.19895951 351.73028454 833.89393997 353.42723083 C834.67010666 354.20137329 835.44627335 354.97551575 836.24596024 355.77311707 C840.37685271 359.92164583 844.33847316 364.15709509 848.15990067 368.59242249 C849.89076881 370.59429533 851.68621796 372.52232919 853.51893997 374.43113708 C854.4990303 375.45860046 854.4990303 375.45860046 855.49892044 376.50682068 C856.16810501 377.20758728 856.83728958 377.90835388 857.52675247 378.63035583 C862.79383099 384.1819458 867.8203438 389.78669131 872.58143997 395.77879333 C874.84447667 398.5542157 877.22567398 401.18403974 879.65175247 403.81785583 C884.06552359 408.62426304 888.21535557 413.58895667 892.31044388 418.66746521 C893.85362284 420.56624384 895.41366044 422.45041322 896.97597122 424.33348083 C903.53338392 432.23931419 909.98202735 440.19212439 916.18202591 448.38279724 C917.93749046 450.6940617 919.70472898 452.99612555 921.47206497 455.29832458 C928.57540309 464.56336586 935.62286714 473.84874793 942.3177681 483.41404724 C943.85558737 485.60876077 945.4022278 487.79714889 946.94862747 489.98582458 C954.6985708 500.97836388 962.26674846 512.07712401 969.65175247 523.31785583 C970.09019485 523.98252869 970.52863724 524.64720154 970.98036575 525.33201599 C990.78189333 555.39494351 1008.84863528 586.49083071 1025.65175247 618.31785583 C1026.22780228 619.40679138 1026.80385208 620.49572693 1027.39735794 621.61766052 C1047.39886493 659.52288743 1065.21481159 698.33826122 1080.65175247 738.31785583 C1081.25865921 739.88406677 1081.25865921 739.88406677 1081.87782669 741.48191833 C1084.92110724 749.38509936 1087.81829514 757.33729562 1090.65175247 765.31785583 C1090.93405716 766.11173706 1091.21636185 766.90561829 1091.50722122 767.72355652 C1122.67790523 855.55205907 1143.72956912 946.64996744 1153.83925247 1050.94285583 C1153.95760956 1052.22250214 1153.95760956 1052.22250214 1154.0783577 1053.52799988 C1157.03353592 1085.87641651 1158.03444927 1118.19456338 1157.96981049 1150.66448593 C1157.96414998 1153.55774237 1157.96134205 1156.45099289 1157.95872879 1159.34425354 C1157.9197126 1189.0976095 1157.303625 1218.66661018 1154.65175247 1248.31785583 C1154.47822477 1250.32353621 1154.30488942 1252.32923323 1154.13173294 1254.33494568 C1148.89828614 1314.08928752 1139.05774037 1373.10060209 1124.65175247 1431.31785583 C1124.34624466 1432.55278778 1124.34624466 1432.55278778 1124.03456497 1433.81266785 C1111.22077321 1485.41307828 1094.61412071 1536.04579779 1074.65175247 1585.31785583 C1074.37524857 1586.00085754 1074.09874466 1586.68385925 1073.81386185 1587.38755798 C1066.00626318 1606.63673322 1057.58215596 1625.56034851 1048.65175247 1644.31785583 C1048.08843216 1645.50621033 1047.52511185 1646.69456482 1046.94472122 1647.91893005 C1035.27165839 1672.52628319 1022.94731266 1696.75292532 1009.35097122 1720.36082458 C1007.55498037 1723.48626154 1005.77465304 1726.62030526 1003.99550247 1729.75535583 C996.51298845 1742.8944329 988.71981873 1755.76670391 980.49794388 1768.45506287 C978.50594885 1771.54394592 976.53611186 1774.64620839 974.56972122 1777.75144958 C967.92142544 1788.23724662 961.23507241 1798.61863368 953.88222122 1808.62498474 C952.02352757 1811.18216367 950.21557806 1813.77430618 948.40224075 1816.36375427 C938.18283866 1830.94959794 927.60897458 1845.277814 916.65175247 1859.31785583 C916.20734818 1859.88842712 915.76294388 1860.45899841 915.30507278 1861.04685974 C906.99725278 1871.70633348 898.49526581 1882.18618477 889.73768997 1892.47996521 C886.82587334 1895.90826328 883.9741177 1899.37759899 881.15175247 1902.88035583 C877.02485041 1907.95393077 872.6507269 1912.75526725 868.20643997 1917.54832458 C866.15061525 1919.77703976 864.1355829 1922.02553502 862.15175247 1924.31785583 C857.94844389 1929.15712599 853.60514556 1933.86677087 849.25787735 1938.57629395 C848.22803905 1939.69297371 847.19930254 1940.81067118 846.17197037 1941.92965698 C836.63593851 1952.31001834 826.77878789 1962.34648457 816.79970169 1972.30027771 C814.25571919 1974.83884434 811.71720119 1977.38278914 809.17909622 1979.92723083 C807.53749007 1981.56817696 805.89557416 1983.20881327 804.25331497 1984.84910583 C803.13432312 1985.97113403 803.13432312 1985.97113403 801.99272537 1987.11582947 C797.91317477 1991.17739481 793.74067369 1995.06585764 789.38060379 1998.82481384 C787.42402071 2000.51452578 785.52823945 2002.25855065 783.65175247 2004.03660583 C782.99175247 2004.65922302 782.33175247 2005.28184021 781.65175247 2005.92332458 C780.99175247 2006.5485199 780.33175247 2007.17371521 779.65175247 2007.81785583 C774.41922591 2012.77444838 769.10949641 2017.60997781 763.65175247 2022.31785583 C763.08021439 2022.81156677 762.5086763 2023.30527771 761.91981888 2023.81394958 C758.43906246 2026.81300794 754.94505874 2029.79663677 751.45106888 2032.78025818 C750.29092987 2033.77164969 749.13168153 2034.76408488 747.97352982 2035.75779724 C741.45885734 2041.34712352 734.85889146 2046.78985461 728.08217239 2052.05906677 C724.32153173 2054.9876161 720.61750719 2057.97479261 716.93886185 2061.00559998 C708.2165584 2068.18252003 699.20897839 2074.90552201 690.07509232 2081.54734802 C687.67025107 2083.30434064 685.27825746 2085.07741897 682.89003372 2086.85691833 C671.99807053 2094.96504334 660.91501282 2102.73514981 649.65175247 2110.31785583 C648.43554902 2111.14198956 647.21939916 2111.96620239 646.00331497 2112.79051208 C575.39586186 2160.44707304 499.21010727 2200.78636974 419.65175247 2231.31785583 C418.96522598 2231.58193237 418.27869949 2231.84600891 417.57136917 2232.11808777 C376.69246538 2247.81750695 335.06458459 2261.41002158 292.65175247 2272.31785583 C291.88959427 2272.51490112 291.12743607 2272.71194641 290.34218216 2272.91496277 C230.1945152 2288.44680998 168.88245426 2298.88633693 107.02675247 2304.50535583 C105.74710617 2304.62371292 105.74710617 2304.62371292 104.44160843 2304.74446106 C72.09248107 2307.69970421 39.77409505 2308.6995255 7.30350494 2308.63571167 C4.41347244 2308.63026005 1.52344815 2308.62790061 -1.36658859 2308.62583923 C-30.24053818 2308.59378161 -58.96789884 2308.05602852 -87.74900436 2305.54246521 C-90.35332951 2305.31741668 -92.95841322 2305.10502909 -95.56406784 2304.89598083 C-137.11843387 2301.53115472 -178.43742826 2295.281169 -219.34824753 2287.31785583 C-220.48861465 2287.0970636 -220.48861465 2287.0970636 -221.6520195 2286.87181091 C-310.25519255 2269.67169379 -396.53795218 2240.9201737 -562.35898972 2160.03318787 C-565.49841681 2158.23168388 -568.64559727 2156.44424134 -571.79356003 2154.65769958 C-584.9296759 2147.17592632 -597.79955389 2139.38432916 -610.48545456 2131.16404724 C-613.57433762 2129.17205222 -616.67660008 2127.20221522 -619.78184128 2125.23582458 C-630.26763831 2118.58752881 -640.64902538 2111.90117577 -650.65537643 2104.54832458 C-653.21255537 2102.68963093 -655.80469787 2100.88168143 -658.39414597 2099.06834412 C-672.97998963 2088.84894202 -687.30820569 2078.27507795 -701.34824753 2067.31785583 C-701.91881882 2066.87345154 -702.48939011 2066.42904724 -703.07725143 2065.97117615 C-713.73672517 2057.66335615 -724.21657647 2049.16136917 -734.5103569 2040.40379333 C-737.93865498 2037.4919767 -741.40799068 2034.64022106 -744.91074753 2031.81785583 C-749.98432246 2027.69095378 -754.78565894 2023.31683026 -759.57871628 2018.87254333 C-761.80743146 2016.81671862 -764.05592672 2014.80168627 -766.34824753 2012.81785583 C-771.18751769 2008.61454726 -775.89716257 2004.27124893 -780.60668564 1999.92398071 C-781.7233654 1998.89414241 -782.84106287 1997.8654059 -783.96004868 1996.83807373 C-794.34041003 1987.30204188 -804.37687626 1977.44489126 -814.3306694 1967.46580505 C-816.86923603 1964.92182255 -819.41318083 1962.38330455 -821.95762253 1959.84519958 C-823.59856865 1958.20359343 -825.23920497 1956.56167753 -826.87949753 1954.91941833 C-827.62751633 1954.17342377 -828.37553513 1953.4274292 -829.14622116 1952.65882874 C-833.20539305 1948.58168219 -837.08951142 1944.41088972 -840.84623337 1940.05345154 C-842.58111447 1938.04877524 -844.37941976 1936.11681246 -846.21543503 1934.20457458 C-847.19552536 1933.17711121 -847.19552536 1933.17711121 -848.1954155 1932.12889099 C-848.86460007 1931.42812439 -849.53378464 1930.72735779 -850.22324753 1930.00535583 C-855.49032604 1924.45376587 -860.51683886 1918.84902036 -865.27793503 1912.85691833 C-867.54097172 1910.08149597 -869.92216904 1907.45167193 -872.34824753 1904.81785583 C-876.76201865 1900.01144863 -880.91185062 1895.046755 -885.00693893 1889.96824646 C-886.5501179 1888.06946783 -888.1101555 1886.18529845 -889.67246628 1884.30223083 C-896.22987898 1876.39639748 -902.6785224 1868.44358728 -908.87852097 1860.25291443 C-910.63398552 1857.94164997 -912.40122403 1855.63958612 -914.16856003 1853.33738708 C-921.27189815 1844.07234581 -928.3193622 1834.78696374 -935.01426315 1825.22166443 C-936.55208243 1823.0269509 -938.09872286 1820.83856278 -939.64512253 1818.64988708 C-947.39506586 1807.65734779 -954.96324352 1796.55858766 -962.34824753 1785.31785583 C-963.0059111 1784.32084656 -963.0059111 1784.32084656 -963.67686081 1783.30369568 C-976.98356909 1763.10128428 -989.53239125 1742.42473849 -1001.34824753 1721.31785583 C-1002.15934525 1719.87899727 -1002.97053963 1718.44019318 -1003.78184128 1717.00144958 C-1021.85276919 1684.82837309 -1038.37763008 1652.04110854 -1053.34824753 1618.31785583 C-1053.87950241 1617.1214447 -1054.41075729 1615.92503357 -1054.95811081 1614.69236755 C-1068.58366532 1583.82792441 -1080.50708364 1552.25930763 -1091.34824753 1520.31785583 C-1091.71982986 1519.22468048 -1091.71982986 1519.22468048 -1092.09891891 1518.10942078 C-1119.39545283 1437.64222452 -1137.25620354 1353.71180285 -1146.53574753 1257.63035583 C-1146.61465225 1256.77298828 -1146.69355698 1255.91562073 -1146.77485275 1255.03227234 C-1147.37178816 1248.46574568 -1147.88285987 1241.89496962 -1148.34824753 1235.31785583 C-1148.4365181 1234.0710202 -1148.52478867 1232.82418457 -1148.6157341 1231.53956604 C-1150.30997082 1207.04395185 -1150.71378622 1182.6013295 -1150.66630554 1158.0524559 C-1150.66065202 1155.08014115 -1150.65783975 1152.10783214 -1150.65522385 1149.13551331 C-1150.6184585 1120.3768415 -1150.22996373 1091.74910269 -1147.60148239 1063.09080505 C-1147.33567399 1060.1801742 -1147.08135548 1057.26867785 -1146.828228 1054.35691833 C-1141.6414779 995.37642008 -1131.98731969 937.17369454 -1117.92380905 879.67155457 C-1117.38603515 877.47238438 -1116.85169565 875.27240677 -1116.31797409 873.07225037 C-1103.47379999 820.3380855 -1086.1381978 768.43365036 -1065.34824753 718.31785583 C-1065.07774582 717.6646637 -1064.80724411 717.01147156 -1064.52854538 716.33848572 C-1046.3562204 672.52480787 -1025.73281701 629.40200502 -1002.05625534 588.28807068 C-1000.23568465 585.1221097 -998.4283093 581.94882499 -996.62168503 578.77488708 C-989.68482305 566.62297872 -982.57395539 554.6314693 -974.98936081 542.87303162 C-973.13567167 539.98688009 -971.3019842 537.08850844 -969.46934128 534.18894958 C-962.20849049 522.72618144 -954.79253389 511.44691707 -946.86094284 500.4384613 C-945.23858073 498.164117 -943.64622305 495.8708851 -942.05918503 493.57176208 C-934.090855 482.03787664 -925.7513577 470.84652183 -917.19981003 459.73973083 C-914.9949427 456.85572716 -912.83131015 453.9429707 -910.67222214 451.02464294 C-904.36445212 442.5062307 -897.69094673 434.32633635 -890.90244675 426.18797302 C-888.82242956 423.68515624 -886.77286498 421.15809381 -884.72324753 418.63035583 C-877.17136215 409.39403506 -869.36944721 400.37140503 -861.35215378 391.53660583 C-859.53512771 389.5247719 -857.74880361 387.4912515 -855.97324753 385.44285583 C-851.72002752 380.56673862 -847.33873393 375.80930598 -842.95025253 371.05529785 C-841.92697571 369.94551097 -840.90494675 368.83457134 -839.88454819 367.72213745 C-830.07658531 357.03444119 -819.91039022 346.72501137 -809.64170456 336.48094177 C-806.95286794 333.79751727 -804.26948797 331.10871791 -801.58652878 328.41941833 C-799.85377678 326.6873264 -798.120715 324.9555443 -796.38731003 323.22410583 C-795.5975679 322.43233948 -794.80782578 321.64057312 -793.99415207 320.82481384 C-789.80577026 316.65391785 -785.53386811 312.64862033 -781.05503464 308.7910614 C-779.13652337 307.13510709 -777.28445384 305.42170703 -775.45371628 303.66941833 C-774.81393845 303.06122253 -774.17416061 302.45302673 -773.51499557 301.82640076 C-772.53526779 300.89404602 -772.53526779 300.89404602 -771.53574753 299.94285583 C-766.15923253 294.86050046 -760.70949163 290.03391429 -754.92246628 285.42332458 C-752.13794405 283.14584737 -749.49410949 280.75473576 -746.84824753 278.31785583 C-742.04184033 273.90408471 -737.07714669 269.75425274 -731.99863815 265.65916443 C-730.09985953 264.11598547 -728.21569014 262.55594787 -726.33262253 260.99363708 C-718.42678917 254.43622439 -710.47397898 247.98758096 -702.28330612 241.7875824 C-699.97204167 240.03211785 -697.66997781 238.26487933 -695.36777878 236.49754333 C-686.1027375 229.39420522 -676.81735543 222.34674116 -667.25205612 215.65184021 C-665.05734259 214.11402093 -662.86895448 212.5673805 -660.68027878 211.02098083 C-649.68773948 203.2710375 -638.58897936 195.70285985 -627.34824753 188.31785583 C-626.35123825 187.66019226 -626.35123825 187.66019226 -625.33408737 186.98924255 C-595.27115985 167.18771498 -564.17527266 149.12097303 -532.34824753 132.31785583 C-531.25931198 131.74180603 -530.17037643 131.16575623 -529.04844284 130.57225037 C-489.24340606 109.5682679 -448.50353713 91.23579247 -406.48722458 75.13761902 C-404.50494061 74.37790847 -402.52391343 73.61500821 -400.54307175 72.85154724 C-315.98949392 40.44031362 -226.99445897 19.25429806 -99.72324753 4.13035583 C-98.87014999 4.05145111 -98.01705246 3.97254639 -97.13810349 3.89125061 C-64.78897612 0.93600746 -32.47059011 -0.06381383 0 0 Z M-411.68076706 417.78123474 C-414.31670398 419.29968495 -416.96753295 420.78774296 -419.62559128 422.26707458 C-431.98668278 429.17162383 -443.86628318 436.67957792 -455.65147018 444.52342224 C-458.16411861 446.19533659 -460.68273888 447.85775633 -463.20371628 449.51707458 C-480.77623774 461.11216552 -497.69125781 473.44361036 -514.34824753 486.31785583 C-515.38006149 487.11352966 -515.38006149 487.11352966 -516.43272018 487.92527771 C-524.35932425 494.0486251 -532.08662371 500.3728608 -539.687603 506.89549255 C-541.4044872 508.36602583 -543.12773435 509.82882507 -544.85215378 511.29051208 C-551.93527042 517.307855 -558.85803704 523.46192979 -565.67098618 529.78337097 C-566.94036043 530.94469003 -568.22070152 532.09403679 -569.5060997 533.2375946 C-575.46480304 538.54051951 -581.19624744 544.01881599 -586.82871628 549.66551208 C-587.68580688 550.52164597 -588.54289749 551.37777985 -589.42596054 552.25985718 C-591.22118962 554.05441119 -593.01517838 555.85020679 -594.80796432 557.64720154 C-597.53576155 560.38036988 -600.26887647 563.10813879 -603.0025444 565.83543396 C-604.7574225 567.5909727 -606.51199046 569.34682154 -608.26621628 571.10301208 C-609.07366791 571.90843948 -609.88111954 572.71386688 -610.7130394 573.54370117 C-614.92919602 577.77716194 -618.99471428 582.08421046 -622.88680649 586.61830139 C-624.94204363 589.00839946 -627.08442388 591.31509724 -629.22324753 593.63035583 C-633.29242144 598.09173928 -637.14802569 602.67730301 -640.93809128 607.37644958 C-643.16520044 610.09446125 -645.44038475 612.75830629 -647.7422905 615.4125824 C-653.35159019 621.88253073 -658.69536652 628.50490197 -663.85068893 635.34324646 C-665.60159712 637.65191053 -667.37100408 639.94583633 -669.14121628 642.23973083 C-676.61747882 651.94746072 -683.92412004 661.71014298 -690.73106003 671.8993988 C-692.66791989 674.79591659 -694.61812391 677.68331445 -696.56699753 680.57176208 C-717.56685401 711.75806156 -736.59033955 743.92402379 -753.44974899 777.52732849 C-754.33260402 779.28668147 -755.21857202 781.04447123 -756.10459518 782.80223083 C-772.24330819 814.97955769 -785.71096458 848.26869728 -797.34824753 882.31785583 C-797.59339096 883.03372864 -797.83853439 883.74960144 -798.09110641 884.48716736 C-805.26568521 905.48990469 -811.4555179 926.67475691 -816.82218552 948.20903015 C-817.34444155 950.30259881 -817.87124378 952.39498539 -818.3985405 954.48728943 C-832.44433969 1010.45424517 -840.17296147 1068.14910371 -841.91074753 1125.81785583 C-841.93159409 1126.50750427 -841.95244064 1127.19715271 -841.97391891 1127.90769958 C-842.35466486 1140.7142748 -842.55089153 1153.50603317 -842.34824753 1166.31785583 C-842.33036179 1167.47027771 -842.31247604 1168.62269958 -842.29404831 1169.81004333 C-840.86612695 1248.68966996 -828.65309542 1327.89483862 -800.00846481 1418.30857849 C-799.37763182 1420.22842893 -798.75221079 1422.15005513 -798.12705612 1424.07176208 C-781.68404755 1474.37929394 -759.610564 1523.75312368 -732.98398972 1569.50389099 C-731.28378509 1572.42875048 -729.60042533 1575.36288624 -727.91856003 1578.29832458 C-717.26558524 1596.81683005 -705.97994175 1614.9030759 -693.70029831 1632.3891449 C-692.31326146 1634.36776374 -690.93773659 1636.35404992 -689.56309128 1638.34129333 C-671.19369244 1664.76952521 -651.03274797 1690.24212254 -629.38340378 1714.06785583 C-627.5744721 1716.06774959 -625.79932952 1718.09055016 -624.03574753 1720.13035583 C-613.84227549 1731.7828755 -603.03262719 1742.79215205 -592.07432175 1753.72215271 C-589.58503437 1756.20604033 -587.10119051 1758.69528266 -584.61777878 1761.18504333 C-583.01263084 1762.78953101 -581.40717302 1764.39370875 -579.80137253 1765.99754333 C-579.07097763 1766.72996246 -578.34058273 1767.46238159 -577.58805466 1768.21699524 C-573.54876273 1772.238135 -569.41898815 1776.09314008 -565.09594345 1779.80827332 C-562.51386754 1782.0385564 -560.03238381 1784.36731771 -557.53574753 1786.69285583 C-552.89133155 1790.98340454 -548.11065954 1795.04657998 -543.18418503 1799.01316833 C-540.64598946 1801.07588925 -538.14988286 1803.1762811 -535.6641655 1805.30125427 C-485.28797011 1848.35137627 -428.31640977 1883.73625439 -369.20127487 1913.3881073 C-367.488721 1914.24737387 -365.7777856 1915.10986409 -364.06699753 1915.97264099 C-292.26363027 1952.00155352 -212.70378039 1976.96918969 272.65565872 1956.36863708 C309.78980464 1943.99727548 345.49853799 1928.50799941 380.65175247 1911.31785583 C381.96732132 1910.680495 381.96732132 1910.680495 383.30946732 1910.03025818 C397.08376044 1903.35349707 410.40923399 1895.99083908 423.65175247 1888.31785583 C424.57778275 1887.78257263 425.50381302 1887.24728943 426.45790482 1886.69578552 C445.34256446 1875.74941198 463.85660286 1864.21666578 481.72304153 1851.66990662 C483.70166038 1850.28286976 485.68794656 1848.9073449 487.67518997 1847.53269958 C514.10342185 1829.16330075 539.57601918 1809.00235628 563.40175247 1787.35301208 C565.40164623 1785.54408041 567.42444679 1783.76893783 569.46425247 1782.00535583 C581.11677214 1771.8118838 592.12604868 1761.0022355 603.05604935 1750.04393005 C605.53993696 1747.55464268 608.0291793 1745.07079882 610.51893997 1742.58738708 C612.12342765 1740.98223915 613.72760539 1739.37678133 615.33143997 1737.77098083 C616.0638591 1737.04058594 616.79627823 1736.31019104 617.55089188 1735.55766296 C621.57203164 1731.51837103 625.42703671 1727.38859645 629.14216995 1723.06555176 C631.37245304 1720.48347585 633.70121434 1718.00199211 636.02675247 1715.50535583 C640.31730117 1710.86093986 644.38047662 1706.08026784 648.34706497 1701.15379333 C650.40978588 1698.61559777 652.51017774 1696.11949117 654.63515091 1693.6337738 C698.15925273 1642.70293887 733.71364485 1585.09062758 763.65175247 1525.31785583 C764.48682327 1523.65375671 764.48682327 1523.65375671 765.33876419 1521.95603943 C790.91636341 1470.66466211 810.45286658 1415.88992591 824.16859818 1360.27580261 C824.64098814 1358.36147748 825.11799665 1356.44829391 825.59511185 1354.53514099 C839.49966153 1298.4055276 847.4723692 1240.62257486 849.21425247 1182.81785583 C849.23509903 1182.1282074 849.25594559 1181.43855896 849.27742386 1180.72801208 C849.6581698 1167.92143687 849.85439647 1155.1296785 849.65175247 1142.31785583 C849.62492386 1140.58922302 849.62492386 1140.58922302 849.59755325 1138.82566833 C848.16957333 1059.94280675 835.95057861 980.74519651 806.65175247 888.31785583 C806.43970169 887.67181396 806.22765091 887.02577209 806.00917435 886.3601532 C793.67743616 848.81149907 778.00487861 812.80436369 760.65175247 777.31785583 C760.01439163 776.00228699 760.01439163 776.00228699 759.36415482 774.66014099 C752.68739371 760.88584787 745.32473572 747.56037432 737.65175247 734.31785583 C737.11646927 733.39182556 736.58118607 732.46579529 736.02968216 731.51170349 C725.08330862 712.62704384 713.55056242 694.11300545 701.00380325 676.24656677 C699.6167664 674.26794793 698.24124153 672.28166175 696.86659622 670.29441833 C678.49719739 643.86618646 658.33625292 618.39358913 636.68690872 594.56785583 C634.87797704 592.56796208 633.10283446 590.54516151 631.33925247 588.50535583 C621.14578044 576.85283617 610.33613214 565.84355962 599.37782669 554.91355896 C596.88853932 552.42967134 594.40469545 549.94042901 591.92128372 547.45066833 C590.31613579 545.84618066 588.71067797 544.24200292 587.10487747 542.63816833 C586.00928513 541.53953964 586.00928513 541.53953964 584.8915596 540.41871643 C580.85226767 536.39757667 576.72249309 532.54257159 572.39944839 528.82743835 C569.81737249 526.59715527 567.33588875 524.26839396 564.83925247 521.94285583 C560.21875698 517.67390389 555.46068496 513.63754289 550.55800247 509.69285583 C547.85043054 507.48021641 545.200284 505.21679764 542.55922318 502.92601013 C536.08901642 497.31542542 529.46551769 491.97134851 522.62636185 486.81541443 C520.31769777 485.06450624 518.02377198 483.29509928 515.72987747 481.52488708 C506.02214759 474.04862455 496.25946533 466.74198333 486.0702095 459.93504333 C483.17369172 457.99818347 480.28629385 456.04797946 477.39784622 454.09910583 C456.95992099 440.33804339 436.18709268 427.30378006 414.65175247 415.31785583 C413.27841751 414.55287781 413.27841751 414.55287781 411.87733841 413.77244568 C338.03335101 372.82027926 258.38518236 342.87873866 -411.68076706 417.78123474 Z " fill="#000000" transform="translate(1246.3482475280762,95.68214416503906)"/>
<path d="M0 0 C0.90963501 0.00093658 1.81927002 0.00187317 2.75646973 0.00283813 C88.92123841 0.19326892 171.97527631 21.48495771 248.75 60.1875 C249.73419922 60.68169434 250.71839844 61.17588867 251.73242188 61.68505859 C270.54421501 71.18536379 288.39393688 82.25399621 305.75 94.1875 C306.47848145 94.68781738 307.20696289 95.18813477 307.95751953 95.70361328 C317.84079227 102.5195879 327.40854934 109.6478214 336.75 117.1875 C337.72710938 117.96996094 338.70421875 118.75242187 339.7109375 119.55859375 C345.09840946 123.91233509 350.30857448 128.41844713 355.4296875 133.08203125 C357.45154184 134.91667685 359.49678522 136.71518786 361.5625 138.5 C374.68012464 149.96480393 387.83437696 161.91800903 399.08984375 175.24609375 C401.20702462 177.72194997 403.41781829 180.10411268 405.625 182.5 C410.5419433 187.90420795 415.21088689 193.46412579 419.75 199.1875 C420.26578613 199.83605957 420.78157227 200.48461914 421.31298828 201.15283203 C429.84113707 211.90721429 437.98448827 222.87061982 445.75 234.1875 C446.17732422 234.80657227 446.60464844 235.42564453 447.04492188 236.06347656 C459.17663829 253.69326415 469.77691978 272.26697465 479.75 291.1875 C480.23968262 292.11481934 480.72936523 293.04213867 481.23388672 293.99755859 C520.48322406 368.91164163 540.04263974 454.09420387 539.9375 538.5 C539.93689575 539.40925232 539.9362915 540.31850464 539.93566895 541.25531006 C539.822357 604.62294058 528.24441346 666.64174838 506.75 726.1875 C506.30575684 727.4235498 505.86151367 728.65959961 505.40380859 729.93310547 C498.43236985 749.06457915 489.76576463 767.29301661 480.62042236 785.45770264 C479.83888951 787.01084916 479.06151078 788.56608437 478.28466797 790.12158203 C468.85687051 808.92358962 457.73495934 826.91138827 445.75 844.1875 C445.35925293 844.75162598 444.96850586 845.31575195 444.56591797 845.89697266 C435.11338235 859.47509391 425.1042577 872.65322867 414.30859375 885.19140625 C411.83675417 888.08591153 409.44461933 891.03151283 407.0625 894 C403.86831705 897.92867422 400.53945732 901.55839272 396.8671875 905.04296875 C394.99799297 906.93630416 393.27102346 908.87646443 391.53515625 910.890625 C387.64589371 915.368966 383.51662593 919.56857862 379.3125 923.75 C378.60029297 924.46607422 377.88808594 925.18214844 377.15429688 925.91992188 C373.0843069 929.98251859 368.91671142 933.86775636 364.56079102 937.62182617 C362.13788923 939.71675257 359.7900901 941.8891897 357.4375 944.0625 C352.03329205 948.9794433 346.47337421 953.64838689 340.75 958.1875 C340.10144043 958.70328613 339.45288086 959.21907227 338.78466797 959.75048828 C328.03028571 968.27863707 317.06688018 976.42198827 305.75 984.1875 C305.13092773 984.61482422 304.51185547 985.04214844 303.87402344 985.48242188 C286.24423585 997.61413829 267.67052535 1008.21441978 248.75 1018.1875 C247.82268066 1018.67718262 246.89536133 1019.16686523 245.93994141 1019.67138672 C169.71418163 1059.60794388 83.74703332 1078.54792929 -157.30026245 1055.03779602 C-184.0493355 1046.56723887 -209.92233714 1036.26704446 -235.25 1024.1875 C-236.17377441 1023.74825195 -237.09754883 1023.30900391 -238.04931641 1022.85644531 C-265.88246765 1009.53012019 -292.93064627 993.58626282 -317.33349609 974.65966797 C-319.31648517 973.13642922 -321.31997633 971.64475615 -323.33203125 970.16015625 C-330.85255074 964.60740642 -338.13917923 958.88646633 -345.21875 952.78125 C-348.12368551 950.29558353 -351.08045185 947.89219247 -354.0625 945.5 C-357.99117422 942.30581705 -361.62089272 938.97695732 -365.10546875 935.3046875 C-366.99880416 933.43549297 -368.93896443 931.70852346 -370.953125 929.97265625 C-375.431466 926.08339371 -379.63107862 921.95412593 -383.8125 917.75 C-384.52857422 917.03779297 -385.24464844 916.32558594 -385.98242188 915.59179688 C-390.04501859 911.5218069 -393.93025636 907.35421142 -397.68432617 902.99829102 C-399.77925257 900.57538923 -401.9516897 898.2275901 -404.125 895.875 C-409.0419433 890.47079205 -413.71088689 884.91087421 -418.25 879.1875 C-418.76578613 878.53894043 -419.28157227 877.89038086 -419.81298828 877.22216797 C-428.34113707 866.46778571 -436.48448827 855.50438018 -444.25 844.1875 C-444.67732422 843.56842773 -445.10464844 842.94935547 -445.54492188 842.31152344 C-457.67663829 824.68173585 -468.27691978 806.10802535 -478.25 787.1875 C-478.73968262 786.26018066 -479.22936523 785.33286133 -479.73388672 784.37744141 C-520.18097522 707.17724512 -538.87357881 620.27662104 -514.56256104 378.96112061 C-498.3979345 327.61556084 -474.75293723 278.55090855 -444.25 234.1875 C-443.74968262 233.45901855 -443.24936523 232.73053711 -442.73388672 231.97998047 C-435.91794264 222.09675201 -428.79024372 212.52848648 -421.25 203.1875 C-420.51394531 202.26839844 -419.77789063 201.34929687 -419.01953125 200.40234375 C-402.07877117 179.45011043 -383.83161167 158.3313435 -363.2265625 140.8828125 C-360.74139806 138.7512683 -358.34559854 136.53066401 -355.9375 134.3125 C-350.53329205 129.3955567 -344.97337421 124.72661311 -339.25 120.1875 C-338.60144043 119.67171387 -337.95288086 119.15592773 -337.28466797 118.62451172 C-326.53028571 110.09636293 -315.56688018 101.95301173 -304.25 94.1875 C-303.63092773 93.76017578 -303.01185547 93.33285156 -302.37402344 92.89257812 C-284.7444343 80.76099827 -266.1710151 70.15925474 -247.25 60.1875 C-246.3120459 59.6925 -245.3740918 59.1975 -244.40771484 58.6875 C-169.60710112 19.52140398 -84.27885848 -0.11389035 0 0 Z " fill="#000000" transform="translate(1249.25,710.8125)"/>
</svg>
