<?xml version="1.0" encoding="UTF-8"?>
<svg version="1.1" xmlns="http://www.w3.org/2000/svg" width="2500" height="2500">
<path d="M0 0 C2.71931391 0.00568472 5.43862146 0.00847759 8.15793991 0.0110817 C102.09152333 0.14143025 195.94958228 10.40943924 364.53370285 54.31805801 C365.28526657 54.56320145 366.03683029 54.80834488 366.81116867 55.0609169 C405.46498128 67.69882122 442.90754103 82.92367447 479.44288254 100.80633926 C481.49614742 101.81059015 483.55148011 102.81062471 485.60889816 103.80633926 C504.16419143 112.79063329 504.16419143 112.79063329 512.61182785 117.99774551 C513.5964299 118.60368546 514.58103195 119.2096254 515.59547043 119.83392715 C517.45862288 120.99794268 519.30857403 122.18347254 521.14185715 123.39398575 C525.93670974 126.40911569 529.19821638 128.06911072 534.84595871 126.96869278 C535.73291428 126.75398331 536.61986984 126.53927383 537.53370285 126.31805801 C538.71907639 126.06789932 539.90444992 125.81774063 541.12574387 125.56000137 C543.97136485 124.95760447 546.81074445 124.33225581 549.64771652 123.69037247 C591.98798269 114.11094236 635.17017827 107.74792423 678.53370285 105.31805801 C679.20460953 105.27675766 679.8755162 105.23545731 680.56675339 105.19290543 C697.60931608 104.15543881 714.65412002 104.11659399 731.72120285 104.13055801 C732.8184531 104.13095833 732.8184531 104.13095833 733.93787003 104.13136673 C755.16543422 104.14108123 776.32507775 104.22051278 797.48487473 106.13446426 C799.70109744 106.3330581 801.91806643 106.52131409 804.13526535 106.70868301 C885.59496449 113.66863451 966.47583411 131.45157777 1102.53370285 196.31805801 C1103.97478405 197.18578557 1105.41616615 198.0530137 1106.8579216 198.91962051 C1131.89761622 214.12087189 1154.61720336 232.21635784 1176.03370285 252.13055801 C1177.00315842 253.02726212 1177.00315842 253.02726212 1177.99219894 253.94208145 C1181.89987554 257.61191707 1185.49295163 261.44883699 1188.98389816 265.51654434 C1190.8194635 267.65023001 1192.7378698 269.69863355 1194.65870285 271.75555801 C1235.02989104 316.6582061 1255.88811961 372.66248137 1253.42969894 432.86493301 C1250.91559715 475.28468696 1231.15881118 517.78620296 1204.53370285 550.31805801 C1203.79764816 551.24489395 1203.06159348 552.17172989 1202.3032341 553.12665176 C1188.52438386 570.31973038 1172.91528789 586.75454772 1155.53370285 600.31805801 C1153.67679538 601.89817609 1151.82278809 603.48170668 1149.97120285 605.06805801 C1081.7834893 661.8472738 993.35652963 693.43407855 653.11548996 727.05218887 C617.54271099 723.75840523 581.68646553 718.64022219 546.93555832 710.21747208 C545.79158836 709.9405603 545.79158836 709.9405603 544.6245079 709.65805435 C543.1687663 709.30175444 541.71457276 708.93904191 540.2623558 708.56863785 C535.51804864 707.3998902 531.04753448 706.3077839 526.38502121 708.1815834 C525.38934128 708.79247818 525.38934128 708.79247818 524.3735466 709.41571426 C523.20589767 710.11192886 523.20589767 710.11192886 522.01465988 710.8222084 C521.17531906 711.33646378 520.33597824 711.85071915 519.47120285 712.38055801 C448.80083104 754.17248627 369.57109956 781.75420217 86.25526047 832.13379288 C83.69555176 832.30709991 81.13659264 832.48884032 78.57764816 832.67303848 C-12.90276634 839.13794835 -106.61937696 833.93169884 -595.46629715 656.31805801 C-596.50880852 655.44901946 -597.55180243 654.58055954 -598.5952034 653.71258926 C-605.52656494 647.92460881 -612.25552544 641.95359118 -618.86571121 635.80096817 C-620.59672295 634.19722118 -622.33935955 632.6067481 -624.08348465 631.01727676 C-634.94432049 621.08659169 -634.94432049 621.08659169 -639.5795784 615.51727676 C-641.65365861 613.0996636 -643.82753848 610.79975167 -646.01878738 608.48871231 C-652.99516535 601.1089827 -659.38279548 593.44533348 -665.46629715 585.31805801 C-666.2237825 584.31331436 -666.2237825 584.31331436 -666.99657059 583.28827286 C-696.31221423 544.22179513 -716.55928849 500.70725965 -724.46629715 452.31805801 C-724.59762039 451.51980606 -724.72894363 450.72155411 -724.86424637 449.8991127 C-735.70110637 380.01428479 -710.09541027 311.36651156 -669.94823074 255.19403458 C-663.87779101 246.90474446 -657.19062249 239.08009502 -650.46629715 231.31805801 C-649.65189163 230.3777272 -649.65189163 230.3777272 -648.82103348 229.41839981 C-633.33887928 211.6293378 -616.58327659 195.40404116 -598.46629715 180.31805801 C-597.84819168 179.80033829 -597.23008621 179.28261856 -596.59325027 178.74921036 C-573.50310461 159.46249224 -548.37468155 142.57708701 -522.46629715 127.31805801 C-521.68319168 126.85512344 -520.90008621 126.39218887 -520.09325027 125.91522598 C-438.10297501 77.66359024 -346.79812164 46.21818696 -103.46629715 4.13055801 C-102.56188889 4.05165329 -101.65748062 3.97274857 -100.72566605 3.89145279 C-67.20984088 1.00461683 -33.62966576 -0.07169982 0 0 Z " fill="#1B274B" transform="translate(934.4662971496582,1353.681941986084)"/>
<path d="M0 0 C5.90785587 5.4649644 11.61187379 11.1325425 17.3125 16.8125 C18.65634766 18.14933838 18.65634766 18.14933838 20.02734375 19.51318359 C25.05832523 24.55636708 29.9007698 29.68549233 34.5 35.125 C35.04148682 35.75978271 35.58297363 36.39456543 36.14086914 37.04858398 C55.89753952 60.34629587 72.63898333 85.69017288 87.125 112.5625 C87.46813232 113.19559082 87.81126465 113.82868164 88.16479492 114.48095703 C90.5 118.88114799 90.5 118.88114799 90.5 121.125 C91.16 121.125 91.82 121.125 92.5 121.125 C92.74621094 120.57070313 92.99242187 120.01640625 93.24609375 119.4453125 C97.46343816 111.64125461 104.43635624 104.98352101 110.3828125 98.4609375 C112.29080203 96.35581252 114.15047069 94.21886366 116 92.0625 C122.30138437 84.84428604 129.21168855 78.32889141 136.5 72.125 C137.41007812 71.32578125 138.32015625 70.5265625 139.2578125 69.703125 C202.09081496 14.91113057 285.80808872 -9.98454925 368.3984375 -4.4140625 C435.97240507 1.15500249 502.18289701 28.55868248 552.05078125 74.859375 C554.18387867 76.83257517 556.35358987 78.73794703 558.5625 80.625 C576.3799635 96.14225817 591.71153993 115.3189433 604.5 135.125 C605.16612305 136.15415527 605.16612305 136.15415527 605.84570312 137.20410156 C628.35753751 172.29988941 644.07983926 211.06755995 651.5 252.125 C651.70882813 253.24165039 651.91765625 254.35830078 652.1328125 255.50878906 C658.46683773 290.7768821 658.06176596 328.93007347 651.5 364.125 C651.30164551 365.23601074 651.10329102 366.34702148 650.89892578 367.49169922 C646.07083878 393.82916348 637.50541243 420.1763298 625.5 444.125 C625.04512207 445.0442627 624.59024414 445.96352539 624.12158203 446.91064453 C611.20018026 472.8786471 595.16955611 496.34234676 575.6171875 517.7890625 C573.70919797 519.89418748 571.84952931 522.03113634 570 524.1875 C563.69861563 531.40571396 556.78831145 537.92110859 549.5 544.125 C548.58992188 544.92421875 547.67984375 545.7234375 546.7421875 546.546875 C500.94336192 586.48462901 442.66466961 611.58553617 382.5 619.125 C381.71431641 619.22796387 380.92863281 619.33092773 380.11914062 619.43701172 C300.50277731 629.4923106 217.1063492 606.66017933 153.5 557.9375 C151.48866769 556.34756508 149.48839839 554.74352481 147.5 553.125 C146.98598633 552.70718262 146.47197266 552.28936523 145.94238281 551.85888672 C101.40306683 515.45366927 101.40306683 515.45366927 92.5 495.125 C91.84 495.125 91.18 495.125 90.5 495.125 C90.273125 495.91519531 90.04625 496.70539062 89.8125 497.51953125 C80.88516804 522.04312471 62.55978742 545.8072153 46.5 566.125 C45.30503906 567.63707031 45.30503906 567.63707031 44.0859375 569.1796875 C39.83431412 574.45403815 35.40663831 579.54321748 30.8359375 584.54296875 C29.56349746 585.94946183 28.2972297 587.36208262 27.06445312 588.8034668 C22.20839082 594.46959804 17.02421792 599.78694529 11.74951172 605.06079102 C10.26106763 606.55141615 8.78082723 608.04987017 7.30078125 609.54882812 C1.02644311 615.85952887 -5.53649724 621.57069363 -12.5 627.125 C-13.60176066 628.05985909 -14.69810568 629.0012011 -15.78515625 629.953125 C-24.5878226 637.6291491 -33.92706966 644.44375779 -43.5 651.125 C-44.44697754 651.78798096 -44.44697754 651.78798096 -45.41308594 652.46435547 C-114.05777984 700.2098908 -196.89574574 725.32466002 -280.3125 725.375 C-281.82842239 725.37601212 -281.82842239 725.37601212 -283.37496948 725.37704468 C-373.95458323 725.28161416 -465.12653342 695.53858798 -536.5 639.125 C-537.31597656 638.48820313 -538.13195312 637.85140625 -538.97265625 637.1953125 C-553.89612267 625.41736277 -567.90670121 612.78194645 -581.375 599.375 C-582.07657227 598.67810059 -582.77814453 597.98120117 -583.50097656 597.26318359 C-588.03714522 592.71299444 -592.31893755 588.00183049 -596.5 583.125 C-597.345625 582.16078125 -598.19125 581.1965625 -599.0625 580.203125 C-615.87108715 560.70085401 -630.72872603 539.47602261 -643.5 517.125 C-643.94811035 516.34237793 -644.3962207 515.55975586 -644.85791016 514.75341797 C-690.25188316 434.88767664 -708.393933 341.12341224 -685.62890625 200.61328125 C-668.06817837 137.50150066 -637.693533 78.24695576 -593.0546875 29.92578125 C-591.09183069 27.7738419 -589.18346638 25.59821192 -587.28515625 23.390625 C-583.08317854 18.57434629 -578.59125143 14.06966881 -574.0625 9.5625 C-573.25490234 8.75103516 -572.44730469 7.93957031 -571.61523438 7.10351562 C-566.7396362 2.23577498 -561.74171424 -2.40555607 -556.5 -6.875 C-555.47883131 -7.76393782 -554.45797425 -8.65323381 -553.4375 -9.54296875 C-526.86991359 -32.33032677 -496.98039141 -51.81660156 -465.42285156 -66.94824219 C-463.49008443 -67.87977901 -461.56919384 -68.83304308 -459.6484375 -69.7890625 C-364.46702248 -116.56045138 -248.9274561 -121.42732683 0 0 Z " fill="#1B274B" transform="translate(1219.5,316.875)"/>
</svg>
